<?xml version="1.0" encoding="UTF-8"?>
<svg xmlns="http://www.w3.org/2000/svg" xmlns:xlink="http://www.w3.org/1999/xlink" width="432pt" height="266pt" viewBox="0 0 432 266">
<defs>
<g>
<g id="glyph-0-0">
<path d="M 0.359375 0 L 0.359375 -7.921875 L 6.640625 -7.921875 L 6.640625 0 Z M 5.65625 -1 L 5.65625 -6.9375 L 1.34375 -6.9375 L 1.34375 -1 Z M 5.65625 -1 "/>
</g>
<g id="glyph-0-1">
<path d="M 4.90625 -3.25 L 3.703125 -6.75 L 2.421875 -3.25 Z M 3.140625 -7.921875 L 4.359375 -7.921875 L 7.234375 0 L 6.0625 0 L 5.25 -2.375 L 2.125 -2.375 L 1.265625 0 L 0.15625 0 Z M 3.140625 -7.921875 "/>
</g>
<g id="glyph-0-2">
<path d="M 1.328125 -2.828125 C 1.328125 -2.203125 1.457031 -1.679688 1.71875 -1.265625 C 1.976562 -0.847656 2.398438 -0.640625 2.984375 -0.640625 C 3.429688 -0.640625 3.800781 -0.832031 4.09375 -1.21875 C 4.382812 -1.601562 4.53125 -2.160156 4.53125 -2.890625 C 4.53125 -3.617188 4.378906 -4.15625 4.078125 -4.5 C 3.773438 -4.851562 3.40625 -5.03125 2.96875 -5.03125 C 2.476562 -5.03125 2.082031 -4.84375 1.78125 -4.46875 C 1.476562 -4.09375 1.328125 -3.546875 1.328125 -2.828125 Z M 2.78125 -5.875 C 3.226562 -5.875 3.601562 -5.78125 3.90625 -5.59375 C 4.070312 -5.488281 4.265625 -5.300781 4.484375 -5.03125 L 4.484375 -7.953125 L 5.421875 -7.953125 L 5.421875 0 L 4.546875 0 L 4.546875 -0.796875 C 4.316406 -0.441406 4.046875 -0.1875 3.734375 -0.03125 C 3.429688 0.121094 3.082031 0.203125 2.6875 0.203125 C 2.039062 0.203125 1.476562 -0.0664062 1 -0.609375 C 0.53125 -1.148438 0.296875 -1.867188 0.296875 -2.765625 C 0.296875 -3.609375 0.507812 -4.335938 0.9375 -4.953125 C 1.375 -5.566406 1.988281 -5.875 2.78125 -5.875 Z M 2.78125 -5.875 "/>
</g>
<g id="glyph-0-3">
<path d="M 0.71875 -5.75 L 1.703125 -5.75 L 1.703125 0 L 0.71875 0 Z M 0.71875 -7.921875 L 1.703125 -7.921875 L 1.703125 -6.828125 L 0.71875 -6.828125 Z M 0.71875 -7.921875 "/>
</g>
<g id="glyph-0-4">
<path d="M 2.9375 -5.9375 C 3.59375 -5.9375 4.125 -5.78125 4.53125 -5.46875 C 4.9375 -5.15625 5.179688 -4.609375 5.265625 -3.828125 L 4.328125 -3.828125 C 4.265625 -4.191406 4.128906 -4.488281 3.921875 -4.71875 C 3.722656 -4.957031 3.394531 -5.078125 2.9375 -5.078125 C 2.320312 -5.078125 1.878906 -4.773438 1.609375 -4.171875 C 1.441406 -3.773438 1.359375 -3.289062 1.359375 -2.71875 C 1.359375 -2.132812 1.476562 -1.644531 1.71875 -1.25 C 1.96875 -0.851562 2.351562 -0.65625 2.875 -0.65625 C 3.28125 -0.65625 3.597656 -0.78125 3.828125 -1.03125 C 4.066406 -1.28125 4.234375 -1.617188 4.328125 -2.046875 L 5.265625 -2.046875 C 5.160156 -1.273438 4.890625 -0.710938 4.453125 -0.359375 C 4.023438 -0.00390625 3.472656 0.171875 2.796875 0.171875 C 2.046875 0.171875 1.441406 -0.101562 0.984375 -0.65625 C 0.535156 -1.207031 0.3125 -1.898438 0.3125 -2.734375 C 0.3125 -3.742188 0.554688 -4.53125 1.046875 -5.09375 C 1.546875 -5.65625 2.175781 -5.9375 2.9375 -5.9375 Z M 2.78125 -5.921875 Z M 2.78125 -5.921875 "/>
</g>
<g id="glyph-0-5">
<path d="M 0.90625 -7.390625 L 1.890625 -7.390625 L 1.890625 -5.78125 L 2.8125 -5.78125 L 2.8125 -4.984375 L 1.890625 -4.984375 L 1.890625 -1.21875 C 1.890625 -1.007812 1.957031 -0.875 2.09375 -0.8125 C 2.164062 -0.769531 2.289062 -0.75 2.46875 -0.75 C 2.519531 -0.75 2.570312 -0.75 2.625 -0.75 C 2.675781 -0.75 2.738281 -0.753906 2.8125 -0.765625 L 2.8125 0 C 2.695312 0.03125 2.578125 0.0507812 2.453125 0.0625 C 2.335938 0.0820312 2.210938 0.09375 2.078125 0.09375 C 1.617188 0.09375 1.304688 -0.0195312 1.140625 -0.25 C 0.984375 -0.488281 0.90625 -0.789062 0.90625 -1.15625 L 0.90625 -4.984375 L 0.125 -4.984375 L 0.125 -5.78125 L 0.90625 -5.78125 Z M 0.90625 -7.390625 "/>
</g>
<g id="glyph-0-6">
<path d="M 1.1875 -5.78125 L 2.734375 -1.078125 L 4.34375 -5.78125 L 5.40625 -5.78125 L 3.21875 0 L 2.1875 0 L 0.0625 -5.78125 Z M 1.1875 -5.78125 "/>
</g>
<g id="glyph-0-7">
<path d="M 3.125 -5.90625 C 3.53125 -5.90625 3.925781 -5.804688 4.3125 -5.609375 C 4.695312 -5.421875 4.988281 -5.175781 5.1875 -4.875 C 5.382812 -4.582031 5.515625 -4.238281 5.578125 -3.84375 C 5.628906 -3.582031 5.65625 -3.160156 5.65625 -2.578125 L 1.421875 -2.578125 C 1.441406 -1.992188 1.582031 -1.523438 1.84375 -1.171875 C 2.101562 -0.816406 2.503906 -0.640625 3.046875 -0.640625 C 3.554688 -0.640625 3.960938 -0.804688 4.265625 -1.140625 C 4.429688 -1.328125 4.550781 -1.550781 4.625 -1.8125 L 5.578125 -1.8125 C 5.554688 -1.601562 5.472656 -1.367188 5.328125 -1.109375 C 5.191406 -0.847656 5.035156 -0.632812 4.859375 -0.46875 C 4.554688 -0.175781 4.191406 0.0195312 3.765625 0.125 C 3.523438 0.175781 3.257812 0.203125 2.96875 0.203125 C 2.25 0.203125 1.640625 -0.0546875 1.140625 -0.578125 C 0.640625 -1.097656 0.390625 -1.832031 0.390625 -2.78125 C 0.390625 -3.707031 0.640625 -4.457031 1.140625 -5.03125 C 1.648438 -5.613281 2.3125 -5.90625 3.125 -5.90625 Z M 4.671875 -3.34375 C 4.628906 -3.769531 4.535156 -4.109375 4.390625 -4.359375 C 4.117188 -4.828125 3.675781 -5.0625 3.0625 -5.0625 C 2.613281 -5.0625 2.238281 -4.898438 1.9375 -4.578125 C 1.632812 -4.253906 1.472656 -3.84375 1.453125 -3.34375 Z M 3.03125 -5.921875 Z M 3.03125 -5.921875 "/>
</g>
<g id="glyph-0-8">
</g>
<g id="glyph-0-9">
<path d="M 3.8125 -4.578125 C 4.269531 -4.578125 4.625 -4.640625 4.875 -4.765625 C 5.269531 -4.960938 5.46875 -5.316406 5.46875 -5.828125 C 5.46875 -6.347656 5.257812 -6.695312 4.84375 -6.875 C 4.601562 -6.976562 4.25 -7.03125 3.78125 -7.03125 L 1.859375 -7.03125 L 1.859375 -4.578125 Z M 4.1875 -0.921875 C 4.84375 -0.921875 5.3125 -1.109375 5.59375 -1.484375 C 5.769531 -1.722656 5.859375 -2.015625 5.859375 -2.359375 C 5.859375 -2.929688 5.597656 -3.320312 5.078125 -3.53125 C 4.804688 -3.644531 4.445312 -3.703125 4 -3.703125 L 1.859375 -3.703125 L 1.859375 -0.921875 Z M 0.8125 -7.921875 L 4.21875 -7.921875 C 5.144531 -7.921875 5.804688 -7.644531 6.203125 -7.09375 C 6.429688 -6.769531 6.546875 -6.390625 6.546875 -5.953125 C 6.546875 -5.453125 6.398438 -5.046875 6.109375 -4.734375 C 5.960938 -4.566406 5.753906 -4.410156 5.484375 -4.265625 C 5.890625 -4.109375 6.191406 -3.9375 6.390625 -3.75 C 6.742188 -3.394531 6.921875 -2.914062 6.921875 -2.3125 C 6.921875 -1.800781 6.765625 -1.335938 6.453125 -0.921875 C 5.972656 -0.304688 5.210938 0 4.171875 0 L 0.8125 0 Z M 0.8125 -7.921875 "/>
</g>
<g id="glyph-0-10">
<path d="M 0.71875 -7.953125 L 1.6875 -7.953125 L 1.6875 -5 C 1.914062 -5.289062 2.117188 -5.492188 2.296875 -5.609375 C 2.609375 -5.816406 3 -5.921875 3.46875 -5.921875 C 4.3125 -5.921875 4.878906 -5.625 5.171875 -5.03125 C 5.335938 -4.71875 5.421875 -4.273438 5.421875 -3.703125 L 5.421875 0 L 4.421875 0 L 4.421875 -3.640625 C 4.421875 -4.066406 4.367188 -4.378906 4.265625 -4.578125 C 4.085938 -4.890625 3.753906 -5.046875 3.265625 -5.046875 C 2.867188 -5.046875 2.503906 -4.90625 2.171875 -4.625 C 1.847656 -4.351562 1.6875 -3.832031 1.6875 -3.0625 L 1.6875 0 L 0.71875 0 Z M 0.71875 -7.953125 "/>
</g>
<g id="glyph-0-11">
<path d="M 1.453125 -1.53125 C 1.453125 -1.25 1.554688 -1.023438 1.765625 -0.859375 C 1.972656 -0.703125 2.210938 -0.625 2.484375 -0.625 C 2.828125 -0.625 3.160156 -0.707031 3.484375 -0.875 C 4.023438 -1.132812 4.296875 -1.5625 4.296875 -2.15625 L 4.296875 -2.9375 C 4.171875 -2.863281 4.015625 -2.800781 3.828125 -2.75 C 3.640625 -2.695312 3.457031 -2.660156 3.28125 -2.640625 L 2.703125 -2.5625 C 2.347656 -2.519531 2.082031 -2.445312 1.90625 -2.34375 C 1.601562 -2.175781 1.453125 -1.90625 1.453125 -1.53125 Z M 3.8125 -3.5 C 4.03125 -3.53125 4.175781 -3.625 4.25 -3.78125 C 4.300781 -3.863281 4.328125 -3.988281 4.328125 -4.15625 C 4.328125 -4.488281 4.207031 -4.726562 3.96875 -4.875 C 3.726562 -5.019531 3.390625 -5.09375 2.953125 -5.09375 C 2.453125 -5.09375 2.09375 -4.957031 1.875 -4.6875 C 1.757812 -4.53125 1.679688 -4.304688 1.640625 -4.015625 L 0.734375 -4.015625 C 0.753906 -4.722656 0.984375 -5.21875 1.421875 -5.5 C 1.867188 -5.78125 2.390625 -5.921875 2.984375 -5.921875 C 3.660156 -5.921875 4.210938 -5.789062 4.640625 -5.53125 C 5.054688 -5.269531 5.265625 -4.867188 5.265625 -4.328125 L 5.265625 -1 C 5.265625 -0.894531 5.285156 -0.8125 5.328125 -0.75 C 5.367188 -0.6875 5.457031 -0.65625 5.59375 -0.65625 C 5.632812 -0.65625 5.679688 -0.65625 5.734375 -0.65625 C 5.785156 -0.664062 5.84375 -0.675781 5.90625 -0.6875 L 5.90625 0.03125 C 5.757812 0.0703125 5.644531 0.0976562 5.5625 0.109375 C 5.476562 0.117188 5.367188 0.125 5.234375 0.125 C 4.898438 0.125 4.660156 0.00390625 4.515625 -0.234375 C 4.429688 -0.359375 4.375 -0.535156 4.34375 -0.765625 C 4.144531 -0.503906 3.859375 -0.28125 3.484375 -0.09375 C 3.117188 0.0898438 2.710938 0.1875 2.265625 0.1875 C 1.734375 0.1875 1.296875 0.0234375 0.953125 -0.296875 C 0.609375 -0.617188 0.4375 -1.023438 0.4375 -1.515625 C 0.4375 -2.046875 0.601562 -2.457031 0.9375 -2.75 C 1.28125 -3.050781 1.722656 -3.238281 2.265625 -3.3125 Z M 3 -5.921875 Z M 3 -5.921875 "/>
</g>
<g id="glyph-0-12">
<path d="M 3 -0.625 C 3.644531 -0.625 4.085938 -0.867188 4.328125 -1.359375 C 4.566406 -1.847656 4.6875 -2.390625 4.6875 -2.984375 C 4.6875 -3.523438 4.597656 -3.960938 4.421875 -4.296875 C 4.148438 -4.828125 3.679688 -5.09375 3.015625 -5.09375 C 2.421875 -5.09375 1.988281 -4.863281 1.71875 -4.40625 C 1.445312 -3.957031 1.3125 -3.414062 1.3125 -2.78125 C 1.3125 -2.164062 1.445312 -1.648438 1.71875 -1.234375 C 1.988281 -0.828125 2.414062 -0.625 3 -0.625 Z M 3.046875 -5.9375 C 3.785156 -5.9375 4.410156 -5.6875 4.921875 -5.1875 C 5.441406 -4.695312 5.703125 -3.972656 5.703125 -3.015625 C 5.703125 -2.078125 5.472656 -1.304688 5.015625 -0.703125 C 4.566406 -0.0976562 3.863281 0.203125 2.90625 0.203125 C 2.113281 0.203125 1.484375 -0.0625 1.015625 -0.59375 C 0.546875 -1.132812 0.3125 -1.859375 0.3125 -2.765625 C 0.3125 -3.734375 0.554688 -4.503906 1.046875 -5.078125 C 1.546875 -5.648438 2.210938 -5.9375 3.046875 -5.9375 Z M 3.015625 -5.921875 Z M 3.015625 -5.921875 "/>
</g>
<g id="glyph-0-13">
<path d="M 0.734375 -5.78125 L 1.65625 -5.78125 L 1.65625 -4.78125 C 1.738281 -4.976562 1.925781 -5.210938 2.21875 -5.484375 C 2.507812 -5.765625 2.847656 -5.90625 3.234375 -5.90625 C 3.253906 -5.90625 3.285156 -5.898438 3.328125 -5.890625 C 3.367188 -5.890625 3.441406 -5.882812 3.546875 -5.875 L 3.546875 -4.859375 C 3.492188 -4.867188 3.441406 -4.875 3.390625 -4.875 C 3.335938 -4.875 3.285156 -4.875 3.234375 -4.875 C 2.742188 -4.875 2.363281 -4.71875 2.09375 -4.40625 C 1.832031 -4.09375 1.703125 -3.734375 1.703125 -3.328125 L 1.703125 0 L 0.734375 0 Z M 0.734375 -5.78125 "/>
</g>
<g id="glyph-0-14">
<path d="M 0.84375 -7.921875 L 1.921875 -7.921875 L 1.921875 -0.9375 L 5.921875 -0.9375 L 5.921875 0 L 0.84375 0 Z M 0.84375 -7.921875 "/>
</g>
<g id="glyph-0-15">
<path d="M 1.6875 -5.78125 L 1.6875 -1.9375 C 1.6875 -1.644531 1.734375 -1.40625 1.828125 -1.21875 C 1.992188 -0.875 2.3125 -0.703125 2.78125 -0.703125 C 3.457031 -0.703125 3.921875 -1.003906 4.171875 -1.609375 C 4.304688 -1.929688 4.375 -2.375 4.375 -2.9375 L 4.375 -5.78125 L 5.34375 -5.78125 L 5.34375 0 L 4.421875 0 L 4.4375 -0.859375 C 4.3125 -0.628906 4.15625 -0.441406 3.96875 -0.296875 C 3.59375 0.00390625 3.140625 0.15625 2.609375 0.15625 C 1.785156 0.15625 1.226562 -0.117188 0.9375 -0.671875 C 0.769531 -0.960938 0.6875 -1.351562 0.6875 -1.84375 L 0.6875 -5.78125 Z M 3.015625 -5.921875 Z M 3.015625 -5.921875 "/>
</g>
<g id="glyph-0-16">
<path d="M 0.71875 -5.78125 L 1.640625 -5.78125 L 1.640625 -4.953125 C 1.910156 -5.296875 2.195312 -5.539062 2.5 -5.6875 C 2.8125 -5.832031 3.148438 -5.90625 3.515625 -5.90625 C 4.335938 -5.90625 4.894531 -5.617188 5.1875 -5.046875 C 5.34375 -4.734375 5.421875 -4.285156 5.421875 -3.703125 L 5.421875 0 L 4.4375 0 L 4.4375 -3.640625 C 4.4375 -3.992188 4.382812 -4.28125 4.28125 -4.5 C 4.101562 -4.851562 3.789062 -5.03125 3.34375 -5.03125 C 3.113281 -5.03125 2.921875 -5.007812 2.765625 -4.96875 C 2.503906 -4.882812 2.273438 -4.722656 2.078125 -4.484375 C 1.910156 -4.296875 1.800781 -4.097656 1.75 -3.890625 C 1.707031 -3.691406 1.6875 -3.40625 1.6875 -3.03125 L 1.6875 0 L 0.71875 0 Z M 3 -5.921875 Z M 3 -5.921875 "/>
</g>
<g id="glyph-0-17">
<path d="M 2.75 -5.875 C 3.207031 -5.875 3.601562 -5.765625 3.9375 -5.546875 C 4.125 -5.421875 4.3125 -5.238281 4.5 -5 L 4.5 -5.71875 L 5.390625 -5.71875 L 5.390625 -0.46875 C 5.390625 0.257812 5.285156 0.835938 5.078125 1.265625 C 4.671875 2.046875 3.90625 2.4375 2.78125 2.4375 C 2.164062 2.4375 1.644531 2.296875 1.21875 2.015625 C 0.789062 1.742188 0.550781 1.3125 0.5 0.71875 L 1.5 0.71875 C 1.539062 0.976562 1.632812 1.175781 1.78125 1.3125 C 2 1.53125 2.34375 1.640625 2.8125 1.640625 C 3.550781 1.640625 4.035156 1.378906 4.265625 0.859375 C 4.410156 0.546875 4.472656 -0.00390625 4.453125 -0.796875 C 4.265625 -0.503906 4.03125 -0.285156 3.75 -0.140625 C 3.476562 -0.00390625 3.117188 0.0625 2.671875 0.0625 C 2.046875 0.0625 1.5 -0.15625 1.03125 -0.59375 C 0.5625 -1.039062 0.328125 -1.773438 0.328125 -2.796875 C 0.328125 -3.765625 0.5625 -4.519531 1.03125 -5.0625 C 1.507812 -5.601562 2.082031 -5.875 2.75 -5.875 Z M 4.5 -2.90625 C 4.5 -3.625 4.347656 -4.15625 4.046875 -4.5 C 3.753906 -4.84375 3.378906 -5.015625 2.921875 -5.015625 C 2.242188 -5.015625 1.78125 -4.695312 1.53125 -4.0625 C 1.394531 -3.71875 1.328125 -3.269531 1.328125 -2.71875 C 1.328125 -2.070312 1.457031 -1.578125 1.71875 -1.234375 C 1.988281 -0.890625 2.34375 -0.71875 2.78125 -0.71875 C 3.476562 -0.71875 3.972656 -1.035156 4.265625 -1.671875 C 4.421875 -2.023438 4.5 -2.4375 4.5 -2.90625 Z M 2.859375 -5.921875 Z M 2.859375 -5.921875 "/>
</g>
<g id="glyph-0-18">
<path d="M 4.1875 -8.140625 C 5.1875 -8.140625 5.960938 -7.875 6.515625 -7.34375 C 7.066406 -6.8125 7.375 -6.210938 7.4375 -5.546875 L 6.390625 -5.546875 C 6.273438 -6.054688 6.039062 -6.457031 5.6875 -6.75 C 5.332031 -7.050781 4.832031 -7.203125 4.1875 -7.203125 C 3.40625 -7.203125 2.773438 -6.925781 2.296875 -6.375 C 1.816406 -5.832031 1.578125 -4.992188 1.578125 -3.859375 C 1.578125 -2.929688 1.789062 -2.175781 2.21875 -1.59375 C 2.65625 -1.019531 3.304688 -0.734375 4.171875 -0.734375 C 4.960938 -0.734375 5.5625 -1.039062 5.96875 -1.65625 C 6.195312 -1.96875 6.363281 -2.382812 6.46875 -2.90625 L 7.515625 -2.90625 C 7.421875 -2.070312 7.113281 -1.375 6.59375 -0.8125 C 5.957031 -0.132812 5.109375 0.203125 4.046875 0.203125 C 3.117188 0.203125 2.34375 -0.0703125 1.71875 -0.625 C 0.894531 -1.363281 0.484375 -2.503906 0.484375 -4.046875 C 0.484375 -5.210938 0.789062 -6.171875 1.40625 -6.921875 C 2.082031 -7.734375 3.007812 -8.140625 4.1875 -8.140625 Z M 3.96875 -8.140625 Z M 3.96875 -8.140625 "/>
</g>
<g id="glyph-0-19">
<path d="M 0.953125 -6.65625 C 0.960938 -7.0625 1.035156 -7.359375 1.171875 -7.546875 C 1.390625 -7.867188 1.820312 -8.03125 2.46875 -8.03125 C 2.53125 -8.03125 2.59375 -8.03125 2.65625 -8.03125 C 2.726562 -8.03125 2.804688 -8.023438 2.890625 -8.015625 L 2.890625 -7.125 C 2.785156 -7.132812 2.707031 -7.140625 2.65625 -7.140625 C 2.613281 -7.140625 2.578125 -7.140625 2.546875 -7.140625 C 2.242188 -7.140625 2.0625 -7.0625 2 -6.90625 C 1.945312 -6.757812 1.921875 -6.375 1.921875 -5.75 L 2.890625 -5.75 L 2.890625 -4.984375 L 1.921875 -4.984375 L 1.921875 0 L 0.953125 0 L 0.953125 -4.984375 L 0.15625 -4.984375 L 0.15625 -5.75 L 0.953125 -5.75 Z M 0.953125 -6.65625 "/>
</g>
<g id="glyph-0-20">
<path d="M 1.546875 -2.5625 C 1.566406 -2.101562 1.671875 -1.738281 1.859375 -1.46875 C 2.210938 -0.9375 2.84375 -0.671875 3.75 -0.671875 C 4.144531 -0.671875 4.507812 -0.726562 4.84375 -0.84375 C 5.476562 -1.070312 5.796875 -1.472656 5.796875 -2.046875 C 5.796875 -2.472656 5.664062 -2.78125 5.40625 -2.96875 C 5.125 -3.144531 4.691406 -3.300781 4.109375 -3.4375 L 3.046875 -3.671875 C 2.335938 -3.835938 1.835938 -4.015625 1.546875 -4.203125 C 1.046875 -4.535156 0.796875 -5.03125 0.796875 -5.6875 C 0.796875 -6.394531 1.039062 -6.976562 1.53125 -7.4375 C 2.03125 -7.894531 2.726562 -8.125 3.625 -8.125 C 4.457031 -8.125 5.164062 -7.921875 5.75 -7.515625 C 6.332031 -7.117188 6.625 -6.476562 6.625 -5.59375 L 5.609375 -5.59375 C 5.554688 -6.019531 5.441406 -6.347656 5.265625 -6.578125 C 4.941406 -6.992188 4.382812 -7.203125 3.59375 -7.203125 C 2.96875 -7.203125 2.515625 -7.066406 2.234375 -6.796875 C 1.953125 -6.523438 1.8125 -6.21875 1.8125 -5.875 C 1.8125 -5.476562 1.972656 -5.191406 2.296875 -5.015625 C 2.515625 -4.898438 3 -4.753906 3.75 -4.578125 L 4.859375 -4.328125 C 5.390625 -4.203125 5.800781 -4.035156 6.09375 -3.828125 C 6.59375 -3.460938 6.84375 -2.925781 6.84375 -2.21875 C 6.84375 -1.34375 6.523438 -0.710938 5.890625 -0.328125 C 5.253906 0.0429688 4.515625 0.234375 3.671875 0.234375 C 2.679688 0.234375 1.910156 -0.015625 1.359375 -0.515625 C 0.796875 -1.015625 0.519531 -1.695312 0.53125 -2.5625 Z M 3.71875 -8.140625 Z M 3.71875 -8.140625 "/>
</g>
<g id="glyph-0-21">
<path d="M 0.71875 -5.78125 L 1.671875 -5.78125 L 1.671875 -4.953125 C 1.898438 -5.242188 2.109375 -5.453125 2.296875 -5.578125 C 2.617188 -5.796875 2.984375 -5.90625 3.390625 -5.90625 C 3.847656 -5.90625 4.21875 -5.789062 4.5 -5.5625 C 4.65625 -5.4375 4.800781 -5.25 4.9375 -5 C 5.144531 -5.300781 5.394531 -5.523438 5.6875 -5.671875 C 5.976562 -5.828125 6.304688 -5.90625 6.671875 -5.90625 C 7.453125 -5.90625 7.984375 -5.625 8.265625 -5.0625 C 8.410156 -4.757812 8.484375 -4.351562 8.484375 -3.84375 L 8.484375 0 L 7.46875 0 L 7.46875 -4.015625 C 7.46875 -4.398438 7.375 -4.660156 7.1875 -4.796875 C 7 -4.941406 6.765625 -5.015625 6.484375 -5.015625 C 6.097656 -5.015625 5.769531 -4.882812 5.5 -4.625 C 5.226562 -4.375 5.09375 -3.953125 5.09375 -3.359375 L 5.09375 0 L 4.09375 0 L 4.09375 -3.765625 C 4.09375 -4.160156 4.046875 -4.445312 3.953125 -4.625 C 3.804688 -4.894531 3.535156 -5.03125 3.140625 -5.03125 C 2.765625 -5.03125 2.425781 -4.890625 2.125 -4.609375 C 1.832031 -4.328125 1.6875 -3.8125 1.6875 -3.0625 L 1.6875 0 L 0.71875 0 Z M 0.71875 -5.78125 "/>
</g>
<g id="glyph-0-22">
<path d="M 0.6875 -7.921875 L 1.625 -7.921875 L 1.625 -3.328125 L 4.109375 -5.78125 L 5.359375 -5.78125 L 3.140625 -3.609375 L 5.484375 0 L 4.234375 0 L 2.4375 -2.90625 L 1.625 -2.171875 L 1.625 0 L 0.6875 0 Z M 0.6875 -7.921875 "/>
</g>
<g id="glyph-1-0">
<path d="M 0.90625 -8.640625 L 7.859375 -8.640625 L 7.859375 0 L 0.90625 0 Z M 6.78125 -1.078125 L 6.78125 -7.5625 L 1.984375 -7.5625 L 1.984375 -1.078125 Z M 6.78125 -1.078125 "/>
</g>
<g id="glyph-1-1">
<path d="M 1.859375 1.90625 C 1.429688 1.59375 1.21875 1.128906 1.21875 0.515625 L 1.21875 -1.3125 C 1.21875 -1.8125 1.070312 -2.191406 0.78125 -2.453125 C 0.59375 -2.609375 0.332031 -2.734375 0 -2.828125 L 0 -3.546875 C 0.375 -3.671875 0.640625 -3.8125 0.796875 -3.96875 C 1.078125 -4.238281 1.21875 -4.648438 1.21875 -5.203125 L 1.21875 -6.78125 C 1.21875 -6.976562 1.25 -7.1875 1.3125 -7.40625 C 1.4375 -7.78125 1.640625 -8.078125 1.921875 -8.296875 C 2.171875 -8.503906 2.472656 -8.640625 2.828125 -8.703125 C 3.035156 -8.742188 3.335938 -8.769531 3.734375 -8.78125 L 3.734375 -7.84375 C 3.410156 -7.769531 3.191406 -7.675781 3.078125 -7.5625 C 2.890625 -7.382812 2.796875 -7.070312 2.796875 -6.625 L 2.796875 -5.265625 C 2.796875 -4.828125 2.738281 -4.476562 2.625 -4.21875 C 2.425781 -3.78125 2.035156 -3.429688 1.453125 -3.171875 C 1.984375 -2.953125 2.335938 -2.695312 2.515625 -2.40625 C 2.703125 -2.125 2.796875 -1.734375 2.796875 -1.234375 L 2.796875 0.25 C 2.796875 0.6875 2.90625 1 3.125 1.1875 C 3.238281 1.300781 3.441406 1.398438 3.734375 1.484375 L 3.734375 2.421875 L 3.3125 2.40625 C 2.757812 2.394531 2.273438 2.226562 1.859375 1.90625 Z M 1.859375 1.90625 "/>
</g>
<g id="glyph-1-2">
<path d="M 1.015625 -5.703125 C 1.460938 -6.265625 2.222656 -6.546875 3.296875 -6.546875 C 3.992188 -6.546875 4.613281 -6.40625 5.15625 -6.125 C 5.695312 -5.84375 5.96875 -5.316406 5.96875 -4.546875 L 5.96875 -1.625 C 5.96875 -1.414062 5.972656 -1.171875 5.984375 -0.890625 C 5.992188 -0.671875 6.023438 -0.519531 6.078125 -0.4375 C 6.140625 -0.363281 6.222656 -0.300781 6.328125 -0.25 L 6.328125 0 L 4.515625 0 C 4.460938 -0.125 4.425781 -0.242188 4.40625 -0.359375 C 4.382812 -0.472656 4.367188 -0.601562 4.359375 -0.75 C 4.128906 -0.5 3.863281 -0.285156 3.5625 -0.109375 C 3.207031 0.0976562 2.800781 0.203125 2.34375 0.203125 C 1.769531 0.203125 1.289062 0.0351562 0.90625 -0.296875 C 0.53125 -0.628906 0.34375 -1.097656 0.34375 -1.703125 C 0.34375 -2.484375 0.644531 -3.050781 1.25 -3.40625 C 1.582031 -3.59375 2.070312 -3.726562 2.71875 -3.8125 L 3.28125 -3.890625 C 3.59375 -3.921875 3.816406 -3.96875 3.953125 -4.03125 C 4.191406 -4.132812 4.3125 -4.289062 4.3125 -4.5 C 4.3125 -4.769531 4.21875 -4.953125 4.03125 -5.046875 C 3.851562 -5.148438 3.585938 -5.203125 3.234375 -5.203125 C 2.835938 -5.203125 2.554688 -5.101562 2.390625 -4.90625 C 2.273438 -4.757812 2.195312 -4.5625 2.15625 -4.3125 L 0.546875 -4.3125 C 0.585938 -4.875 0.742188 -5.335938 1.015625 -5.703125 Z M 2.265625 -1.203125 C 2.421875 -1.078125 2.613281 -1.015625 2.84375 -1.015625 C 3.195312 -1.015625 3.523438 -1.117188 3.828125 -1.328125 C 4.128906 -1.535156 4.285156 -1.921875 4.296875 -2.484375 L 4.296875 -3.109375 C 4.191406 -3.035156 4.085938 -2.976562 3.984375 -2.9375 C 3.878906 -2.90625 3.734375 -2.867188 3.546875 -2.828125 L 3.171875 -2.765625 C 2.816406 -2.703125 2.5625 -2.625 2.40625 -2.53125 C 2.144531 -2.375 2.015625 -2.140625 2.015625 -1.828125 C 2.015625 -1.535156 2.097656 -1.328125 2.265625 -1.203125 Z M 2.265625 -1.203125 "/>
</g>
<g id="glyph-1-3">
<path d="M 6.59375 -8.625 L 6.59375 0 L 4.96875 0 L 4.96875 -0.890625 C 4.726562 -0.503906 4.457031 -0.222656 4.15625 -0.046875 C 3.851562 0.117188 3.472656 0.203125 3.015625 0.203125 C 2.273438 0.203125 1.648438 -0.0976562 1.140625 -0.703125 C 0.628906 -1.304688 0.375 -2.082031 0.375 -3.03125 C 0.375 -4.125 0.625 -4.984375 1.125 -5.609375 C 1.625 -6.234375 2.296875 -6.546875 3.140625 -6.546875 C 3.523438 -6.546875 3.867188 -6.457031 4.171875 -6.28125 C 4.472656 -6.113281 4.71875 -5.878906 4.90625 -5.578125 L 4.90625 -8.625 Z M 2.09375 -3.15625 C 2.09375 -2.5625 2.207031 -2.085938 2.4375 -1.734375 C 2.675781 -1.378906 3.03125 -1.203125 3.5 -1.203125 C 3.96875 -1.203125 4.328125 -1.378906 4.578125 -1.734375 C 4.828125 -2.085938 4.953125 -2.539062 4.953125 -3.09375 C 4.953125 -3.875 4.753906 -4.4375 4.359375 -4.78125 C 4.109375 -4.976562 3.828125 -5.078125 3.515625 -5.078125 C 3.023438 -5.078125 2.664062 -4.890625 2.4375 -4.515625 C 2.207031 -4.148438 2.09375 -3.695312 2.09375 -3.15625 Z M 2.09375 -3.15625 "/>
</g>
<g id="glyph-1-4">
<path d="M 2.5 -6.390625 L 2.5 0 L 0.796875 0 L 0.796875 -6.390625 Z M 2.5 -8.6875 L 2.5 -7.15625 L 0.796875 -7.15625 L 0.796875 -8.6875 Z M 2.5 -8.6875 "/>
</g>
<g id="glyph-1-5">
<path d="M 6.3125 -4.09375 L 4.59375 -4.09375 C 4.5625 -4.332031 4.484375 -4.546875 4.359375 -4.734375 C 4.171875 -4.992188 3.878906 -5.125 3.484375 -5.125 C 2.921875 -5.125 2.535156 -4.847656 2.328125 -4.296875 C 2.210938 -3.992188 2.15625 -3.597656 2.15625 -3.109375 C 2.15625 -2.640625 2.210938 -2.257812 2.328125 -1.96875 C 2.523438 -1.4375 2.898438 -1.171875 3.453125 -1.171875 C 3.835938 -1.171875 4.113281 -1.273438 4.28125 -1.484375 C 4.445312 -1.703125 4.546875 -1.976562 4.578125 -2.3125 L 6.28125 -2.3125 C 6.25 -1.800781 6.066406 -1.320312 5.734375 -0.875 C 5.210938 -0.144531 4.4375 0.21875 3.40625 0.21875 C 2.382812 0.21875 1.628906 -0.0820312 1.140625 -0.6875 C 0.660156 -1.300781 0.421875 -2.09375 0.421875 -3.0625 C 0.421875 -4.164062 0.6875 -5.019531 1.21875 -5.625 C 1.75 -6.238281 2.488281 -6.546875 3.4375 -6.546875 C 4.238281 -6.546875 4.894531 -6.363281 5.40625 -6 C 5.914062 -5.644531 6.21875 -5.007812 6.3125 -4.09375 Z M 6.3125 -4.09375 "/>
</g>
<g id="glyph-1-6">
<path d="M 3.703125 -1.1875 L 3.703125 0.0625 L 2.90625 0.09375 C 2.125 0.113281 1.585938 -0.0234375 1.296875 -0.328125 C 1.109375 -0.515625 1.015625 -0.804688 1.015625 -1.203125 L 1.015625 -5.140625 L 0.125 -5.140625 L 0.125 -6.328125 L 1.015625 -6.328125 L 1.015625 -8.109375 L 2.671875 -8.109375 L 2.671875 -6.328125 L 3.703125 -6.328125 L 3.703125 -5.140625 L 2.671875 -5.140625 L 2.671875 -1.765625 C 2.671875 -1.503906 2.703125 -1.335938 2.765625 -1.265625 C 2.828125 -1.203125 3.03125 -1.171875 3.375 -1.171875 C 3.425781 -1.171875 3.476562 -1.171875 3.53125 -1.171875 C 3.59375 -1.179688 3.648438 -1.1875 3.703125 -1.1875 Z M 3.703125 -1.1875 "/>
</g>
<g id="glyph-1-7">
<path d="M 0.15625 -6.390625 L 2.03125 -6.390625 L 3.359375 -1.671875 L 4.71875 -6.390625 L 6.515625 -6.390625 L 4.203125 0 L 2.4375 0 Z M 0.15625 -6.390625 "/>
</g>
<g id="glyph-1-8">
<path d="M 6.25 -1.875 C 6.207031 -1.5 6.007812 -1.113281 5.65625 -0.71875 C 5.101562 -0.09375 4.335938 0.21875 3.359375 0.21875 C 2.546875 0.21875 1.828125 -0.0390625 1.203125 -0.5625 C 0.585938 -1.09375 0.28125 -1.945312 0.28125 -3.125 C 0.28125 -4.226562 0.554688 -5.078125 1.109375 -5.671875 C 1.671875 -6.265625 2.398438 -6.5625 3.296875 -6.5625 C 3.828125 -6.5625 4.304688 -6.457031 4.734375 -6.25 C 5.160156 -6.050781 5.515625 -5.738281 5.796875 -5.3125 C 6.046875 -4.9375 6.207031 -4.5 6.28125 -4 C 6.320312 -3.707031 6.335938 -3.285156 6.328125 -2.734375 L 1.953125 -2.734375 C 1.984375 -2.085938 2.1875 -1.640625 2.5625 -1.390625 C 2.789062 -1.222656 3.066406 -1.140625 3.390625 -1.140625 C 3.734375 -1.140625 4.015625 -1.238281 4.234375 -1.4375 C 4.347656 -1.539062 4.453125 -1.6875 4.546875 -1.875 Z M 4.59375 -3.828125 C 4.5625 -4.273438 4.425781 -4.613281 4.1875 -4.84375 C 3.945312 -5.070312 3.648438 -5.1875 3.296875 -5.1875 C 2.910156 -5.1875 2.609375 -5.0625 2.390625 -4.8125 C 2.179688 -4.570312 2.050781 -4.242188 2 -3.828125 Z M 4.59375 -3.828125 "/>
</g>
<g id="glyph-1-9">
<path d="M 1.1875 -6.625 C 1.1875 -7.050781 1.117188 -7.34375 0.984375 -7.5 C 0.847656 -7.65625 0.609375 -7.769531 0.265625 -7.84375 L 0.265625 -8.78125 C 0.648438 -8.769531 0.953125 -8.742188 1.171875 -8.703125 C 1.515625 -8.640625 1.816406 -8.503906 2.078125 -8.296875 C 2.335938 -8.097656 2.519531 -7.847656 2.625 -7.546875 C 2.726562 -7.253906 2.78125 -7 2.78125 -6.78125 L 2.78125 -5.203125 C 2.78125 -4.640625 2.90625 -4.226562 3.15625 -3.96875 C 3.3125 -3.8125 3.59375 -3.671875 4 -3.546875 L 4 -2.828125 C 3.664062 -2.734375 3.410156 -2.613281 3.234375 -2.46875 C 2.929688 -2.195312 2.78125 -1.8125 2.78125 -1.3125 L 2.78125 0.515625 C 2.78125 1.109375 2.570312 1.566406 2.15625 1.890625 C 1.75 2.222656 1.257812 2.394531 0.6875 2.40625 L 0.265625 2.421875 L 0.265625 1.484375 C 0.554688 1.398438 0.757812 1.300781 0.875 1.1875 C 1.070312 0.988281 1.175781 0.675781 1.1875 0.25 L 1.1875 -1.234375 C 1.1875 -1.785156 1.296875 -2.195312 1.515625 -2.46875 C 1.722656 -2.726562 2.0625 -2.960938 2.53125 -3.171875 C 2.019531 -3.421875 1.664062 -3.703125 1.46875 -4.015625 C 1.28125 -4.335938 1.1875 -4.753906 1.1875 -5.265625 Z M 1.1875 -6.625 "/>
</g>
<g id="glyph-1-10">
<path d="M 5.1875 -6.09375 C 5.6875 -5.769531 5.972656 -5.21875 6.046875 -4.4375 L 4.375 -4.4375 C 4.351562 -4.65625 4.289062 -4.828125 4.1875 -4.953125 C 4.007812 -5.179688 3.695312 -5.296875 3.25 -5.296875 C 2.882812 -5.296875 2.625 -5.238281 2.46875 -5.125 C 2.320312 -5.007812 2.25 -4.875 2.25 -4.71875 C 2.25 -4.53125 2.328125 -4.394531 2.484375 -4.3125 C 2.648438 -4.21875 3.234375 -4.0625 4.234375 -3.84375 C 4.898438 -3.6875 5.394531 -3.453125 5.71875 -3.140625 C 6.050781 -2.816406 6.21875 -2.414062 6.21875 -1.9375 C 6.21875 -1.300781 5.984375 -0.78125 5.515625 -0.375 C 5.046875 0.0195312 4.316406 0.21875 3.328125 0.21875 C 2.328125 0.21875 1.585938 0.00390625 1.109375 -0.421875 C 0.628906 -0.847656 0.390625 -1.390625 0.390625 -2.046875 L 2.078125 -2.046875 C 2.117188 -1.742188 2.195312 -1.53125 2.3125 -1.40625 C 2.519531 -1.1875 2.898438 -1.078125 3.453125 -1.078125 C 3.785156 -1.078125 4.046875 -1.125 4.234375 -1.21875 C 4.429688 -1.3125 4.53125 -1.457031 4.53125 -1.65625 C 4.53125 -1.84375 4.453125 -1.988281 4.296875 -2.09375 C 4.140625 -2.1875 3.5625 -2.351562 2.5625 -2.59375 C 1.832031 -2.769531 1.320312 -2.992188 1.03125 -3.265625 C 0.726562 -3.523438 0.578125 -3.90625 0.578125 -4.40625 C 0.578125 -5 0.804688 -5.503906 1.265625 -5.921875 C 1.734375 -6.347656 2.390625 -6.5625 3.234375 -6.5625 C 4.023438 -6.5625 4.675781 -6.40625 5.1875 -6.09375 Z M 5.1875 -6.09375 "/>
</g>
<g id="glyph-1-11">
<path d="M 4.359375 -4.625 C 4.222656 -4.9375 3.953125 -5.09375 3.546875 -5.09375 C 3.066406 -5.09375 2.742188 -4.9375 2.578125 -4.625 C 2.484375 -4.445312 2.4375 -4.1875 2.4375 -3.84375 L 2.4375 0 L 0.75 0 L 0.75 -6.375 L 2.375 -6.375 L 2.375 -5.4375 C 2.582031 -5.769531 2.773438 -6.007812 2.953125 -6.15625 C 3.285156 -6.40625 3.707031 -6.53125 4.21875 -6.53125 C 4.707031 -6.53125 5.101562 -6.421875 5.40625 -6.203125 C 5.644531 -6.003906 5.828125 -5.75 5.953125 -5.4375 C 6.171875 -5.8125 6.441406 -6.085938 6.765625 -6.265625 C 7.109375 -6.441406 7.492188 -6.53125 7.921875 -6.53125 C 8.203125 -6.53125 8.476562 -6.472656 8.75 -6.359375 C 9.019531 -6.253906 9.269531 -6.066406 9.5 -5.796875 C 9.675781 -5.566406 9.796875 -5.289062 9.859375 -4.96875 C 9.898438 -4.75 9.921875 -4.4375 9.921875 -4.03125 L 9.90625 0 L 8.1875 0 L 8.1875 -4.0625 C 8.1875 -4.3125 8.148438 -4.515625 8.078125 -4.671875 C 7.929688 -4.960938 7.65625 -5.109375 7.25 -5.109375 C 6.789062 -5.109375 6.472656 -4.914062 6.296875 -4.53125 C 6.210938 -4.332031 6.171875 -4.085938 6.171875 -3.796875 L 6.171875 0 L 4.484375 0 L 4.484375 -3.796875 C 4.484375 -4.179688 4.441406 -4.457031 4.359375 -4.625 Z M 4.359375 -4.625 "/>
</g>
<g id="glyph-1-12">
<path d="M 6.109375 -5.578125 C 6.648438 -4.898438 6.921875 -4.101562 6.921875 -3.1875 C 6.921875 -2.25 6.648438 -1.445312 6.109375 -0.78125 C 5.566406 -0.113281 4.75 0.21875 3.65625 0.21875 C 2.550781 0.21875 1.726562 -0.113281 1.1875 -0.78125 C 0.65625 -1.445312 0.390625 -2.25 0.390625 -3.1875 C 0.390625 -4.101562 0.65625 -4.898438 1.1875 -5.578125 C 1.726562 -6.253906 2.550781 -6.59375 3.65625 -6.59375 C 4.75 -6.59375 5.566406 -6.253906 6.109375 -5.578125 Z M 3.640625 -5.1875 C 3.148438 -5.1875 2.773438 -5.007812 2.515625 -4.65625 C 2.253906 -4.3125 2.125 -3.820312 2.125 -3.1875 C 2.125 -2.539062 2.253906 -2.039062 2.515625 -1.6875 C 2.773438 -1.34375 3.148438 -1.171875 3.640625 -1.171875 C 4.128906 -1.171875 4.503906 -1.34375 4.765625 -1.6875 C 5.023438 -2.039062 5.15625 -2.539062 5.15625 -3.1875 C 5.15625 -3.820312 5.023438 -4.3125 4.765625 -4.65625 C 4.503906 -5.007812 4.128906 -5.1875 3.640625 -5.1875 Z M 3.640625 -5.1875 "/>
</g>
<g id="glyph-1-13">
<path d="M 6.640625 0 L 4.625 0 L 3.09375 -2.734375 L 2.40625 -2.015625 L 2.40625 0 L 0.765625 0 L 0.765625 -8.609375 L 2.40625 -8.609375 L 2.40625 -3.953125 L 4.484375 -6.359375 L 6.546875 -6.359375 L 4.3125 -3.921875 Z M 6.640625 0 "/>
</g>
<g id="glyph-1-14">
<path d="M 3.78125 -5.15625 C 3.21875 -5.15625 2.832031 -4.914062 2.625 -4.4375 C 2.507812 -4.175781 2.453125 -3.847656 2.453125 -3.453125 L 2.453125 0 L 0.796875 0 L 0.796875 -6.375 L 2.40625 -6.375 L 2.40625 -5.4375 C 2.613281 -5.769531 2.816406 -6.007812 3.015625 -6.15625 C 3.359375 -6.414062 3.789062 -6.546875 4.3125 -6.546875 C 4.976562 -6.546875 5.519531 -6.367188 5.9375 -6.015625 C 6.351562 -5.671875 6.5625 -5.097656 6.5625 -4.296875 L 6.5625 0 L 4.859375 0 L 4.859375 -3.890625 C 4.859375 -4.222656 4.8125 -4.476562 4.71875 -4.65625 C 4.5625 -4.988281 4.25 -5.15625 3.78125 -5.15625 Z M 3.78125 -5.15625 "/>
</g>
<g id="glyph-1-15">
<path d="M 2.578125 1.125 C 2.765625 1.269531 3.070312 1.34375 3.5 1.34375 C 4.09375 1.34375 4.492188 1.144531 4.703125 0.75 C 4.835938 0.488281 4.90625 0.0507812 4.90625 -0.5625 L 4.90625 -0.96875 C 4.738281 -0.695312 4.566406 -0.492188 4.390625 -0.359375 C 4.054688 -0.0976562 3.625 0.03125 3.09375 0.03125 C 2.269531 0.03125 1.613281 -0.253906 1.125 -0.828125 C 0.632812 -1.410156 0.390625 -2.191406 0.390625 -3.171875 C 0.390625 -4.117188 0.625 -4.914062 1.09375 -5.5625 C 1.570312 -6.21875 2.242188 -6.546875 3.109375 -6.546875 C 3.429688 -6.546875 3.707031 -6.492188 3.9375 -6.390625 C 4.34375 -6.222656 4.671875 -5.914062 4.921875 -5.46875 L 4.921875 -6.390625 L 6.546875 -6.390625 L 6.546875 -0.328125 C 6.546875 0.492188 6.410156 1.113281 6.140625 1.53125 C 5.660156 2.25 4.742188 2.609375 3.390625 2.609375 C 2.578125 2.609375 1.910156 2.445312 1.390625 2.125 C 0.878906 1.8125 0.597656 1.335938 0.546875 0.703125 L 2.359375 0.703125 C 2.398438 0.890625 2.472656 1.03125 2.578125 1.125 Z M 2.296875 -2.1875 C 2.523438 -1.644531 2.929688 -1.375 3.515625 -1.375 C 3.910156 -1.375 4.242188 -1.519531 4.515625 -1.8125 C 4.785156 -2.101562 4.921875 -2.570312 4.921875 -3.21875 C 4.921875 -3.820312 4.789062 -4.28125 4.53125 -4.59375 C 4.28125 -4.914062 3.9375 -5.078125 3.5 -5.078125 C 2.914062 -5.078125 2.515625 -4.800781 2.296875 -4.25 C 2.171875 -3.957031 2.109375 -3.597656 2.109375 -3.171875 C 2.109375 -2.796875 2.171875 -2.46875 2.296875 -2.1875 Z M 2.296875 -2.1875 "/>
</g>
<g id="glyph-2-0">
<path d="M 0.390625 0 L 0.390625 -8.609375 L 7.21875 -8.609375 L 7.21875 0 Z M 6.140625 -1.078125 L 6.140625 -7.53125 L 1.46875 -7.53125 L 1.46875 -1.078125 Z M 6.140625 -1.078125 "/>
</g>
<g id="glyph-2-1">
<path d="M 1.578125 -1.671875 C 1.578125 -1.367188 1.6875 -1.128906 1.90625 -0.953125 C 2.132812 -0.773438 2.398438 -0.6875 2.703125 -0.6875 C 3.078125 -0.6875 3.4375 -0.769531 3.78125 -0.9375 C 4.375 -1.226562 4.671875 -1.695312 4.671875 -2.34375 L 4.671875 -3.1875 C 4.535156 -3.113281 4.363281 -3.046875 4.15625 -2.984375 C 3.957031 -2.929688 3.757812 -2.894531 3.5625 -2.875 L 2.9375 -2.796875 C 2.550781 -2.742188 2.257812 -2.660156 2.0625 -2.546875 C 1.738281 -2.367188 1.578125 -2.078125 1.578125 -1.671875 Z M 4.140625 -3.796875 C 4.378906 -3.828125 4.539062 -3.929688 4.625 -4.109375 C 4.664062 -4.203125 4.6875 -4.335938 4.6875 -4.515625 C 4.6875 -4.867188 4.554688 -5.125 4.296875 -5.28125 C 4.046875 -5.445312 3.6875 -5.53125 3.21875 -5.53125 C 2.664062 -5.53125 2.273438 -5.382812 2.046875 -5.09375 C 1.910156 -4.925781 1.820312 -4.679688 1.78125 -4.359375 L 0.796875 -4.359375 C 0.816406 -5.128906 1.066406 -5.664062 1.546875 -5.96875 C 2.035156 -6.269531 2.597656 -6.421875 3.234375 -6.421875 C 3.972656 -6.421875 4.570312 -6.28125 5.03125 -6 C 5.488281 -5.71875 5.71875 -5.28125 5.71875 -4.6875 L 5.71875 -1.078125 C 5.71875 -0.972656 5.738281 -0.882812 5.78125 -0.8125 C 5.832031 -0.75 5.929688 -0.71875 6.078125 -0.71875 C 6.117188 -0.71875 6.164062 -0.71875 6.21875 -0.71875 C 6.28125 -0.726562 6.347656 -0.738281 6.421875 -0.75 L 6.421875 0.03125 C 6.253906 0.0703125 6.125 0.0976562 6.03125 0.109375 C 5.945312 0.128906 5.832031 0.140625 5.6875 0.140625 C 5.320312 0.140625 5.0625 0.0078125 4.90625 -0.25 C 4.8125 -0.382812 4.75 -0.578125 4.71875 -0.828125 C 4.5 -0.546875 4.1875 -0.300781 3.78125 -0.09375 C 3.382812 0.113281 2.945312 0.21875 2.46875 0.21875 C 1.882812 0.21875 1.40625 0.0390625 1.03125 -0.3125 C 0.664062 -0.664062 0.484375 -1.109375 0.484375 -1.640625 C 0.484375 -2.222656 0.664062 -2.675781 1.03125 -3 C 1.394531 -3.320312 1.867188 -3.519531 2.453125 -3.59375 Z M 3.265625 -6.421875 Z M 3.265625 -6.421875 "/>
</g>
<g id="glyph-2-2">
<path d="M 1.4375 -3.0625 C 1.4375 -2.394531 1.578125 -1.832031 1.859375 -1.375 C 2.148438 -0.925781 2.609375 -0.703125 3.234375 -0.703125 C 3.722656 -0.703125 4.125 -0.910156 4.4375 -1.328125 C 4.757812 -1.742188 4.921875 -2.347656 4.921875 -3.140625 C 4.921875 -3.929688 4.753906 -4.515625 4.421875 -4.890625 C 4.097656 -5.273438 3.703125 -5.46875 3.234375 -5.46875 C 2.703125 -5.46875 2.269531 -5.265625 1.9375 -4.859375 C 1.601562 -4.453125 1.4375 -3.851562 1.4375 -3.0625 Z M 3.03125 -6.390625 C 3.507812 -6.390625 3.910156 -6.285156 4.234375 -6.078125 C 4.421875 -5.960938 4.632812 -5.757812 4.875 -5.46875 L 4.875 -8.640625 L 5.890625 -8.640625 L 5.890625 0 L 4.9375 0 L 4.9375 -0.875 C 4.695312 -0.488281 4.40625 -0.207031 4.0625 -0.03125 C 3.726562 0.132812 3.34375 0.21875 2.90625 0.21875 C 2.207031 0.21875 1.601562 -0.0703125 1.09375 -0.65625 C 0.582031 -1.25 0.328125 -2.03125 0.328125 -3 C 0.328125 -3.914062 0.5625 -4.707031 1.03125 -5.375 C 1.5 -6.050781 2.164062 -6.390625 3.03125 -6.390625 Z M 3.03125 -6.390625 "/>
</g>
<g id="glyph-2-3">
<path d="M 1.828125 -7.390625 L 0.78125 -7.390625 L 0.78125 -8.609375 L 1.828125 -8.609375 Z M -0.21875 1.59375 C 0.246094 1.570312 0.53125 1.523438 0.625 1.453125 C 0.726562 1.390625 0.78125 1.179688 0.78125 0.828125 L 0.78125 -6.25 L 1.828125 -6.25 L 1.828125 0.9375 C 1.828125 1.394531 1.753906 1.734375 1.609375 1.953125 C 1.359375 2.335938 0.890625 2.53125 0.203125 2.53125 C 0.148438 2.53125 0.09375 2.523438 0.03125 2.515625 C -0.0195312 2.515625 -0.101562 2.507812 -0.21875 2.5 Z M -0.21875 1.59375 "/>
</g>
<g id="glyph-2-4">
<path d="M 1.828125 -6.28125 L 1.828125 -2.109375 C 1.828125 -1.785156 1.878906 -1.523438 1.984375 -1.328125 C 2.171875 -0.953125 2.519531 -0.765625 3.03125 -0.765625 C 3.757812 -0.765625 4.257812 -1.09375 4.53125 -1.75 C 4.675781 -2.101562 4.75 -2.582031 4.75 -3.1875 L 4.75 -6.28125 L 5.796875 -6.28125 L 5.796875 0 L 4.8125 0 L 4.8125 -0.921875 C 4.675781 -0.679688 4.507812 -0.484375 4.3125 -0.328125 C 3.90625 0.00390625 3.414062 0.171875 2.84375 0.171875 C 1.945312 0.171875 1.335938 -0.128906 1.015625 -0.734375 C 0.835938 -1.046875 0.75 -1.472656 0.75 -2.015625 L 0.75 -6.28125 Z M 3.28125 -6.421875 Z M 3.28125 -6.421875 "/>
</g>
<g id="glyph-2-5">
<path d="M 1.40625 -1.96875 C 1.4375 -1.613281 1.523438 -1.34375 1.671875 -1.15625 C 1.929688 -0.820312 2.390625 -0.65625 3.046875 -0.65625 C 3.441406 -0.65625 3.785156 -0.738281 4.078125 -0.90625 C 4.378906 -1.070312 4.53125 -1.332031 4.53125 -1.6875 C 4.53125 -1.957031 4.410156 -2.164062 4.171875 -2.3125 C 4.015625 -2.394531 3.710938 -2.492188 3.265625 -2.609375 L 2.421875 -2.8125 C 1.890625 -2.945312 1.5 -3.097656 1.25 -3.265625 C 0.789062 -3.546875 0.5625 -3.941406 0.5625 -4.453125 C 0.5625 -5.046875 0.773438 -5.523438 1.203125 -5.890625 C 1.628906 -6.253906 2.207031 -6.4375 2.9375 -6.4375 C 3.875 -6.4375 4.550781 -6.160156 4.96875 -5.609375 C 5.238281 -5.253906 5.367188 -4.875 5.359375 -4.46875 L 4.359375 -4.46875 C 4.335938 -4.707031 4.253906 -4.925781 4.109375 -5.125 C 3.867188 -5.394531 3.445312 -5.53125 2.84375 -5.53125 C 2.445312 -5.53125 2.144531 -5.453125 1.9375 -5.296875 C 1.738281 -5.148438 1.640625 -4.953125 1.640625 -4.703125 C 1.640625 -4.429688 1.773438 -4.210938 2.046875 -4.046875 C 2.203125 -3.953125 2.429688 -3.867188 2.734375 -3.796875 L 3.421875 -3.625 C 4.179688 -3.4375 4.691406 -3.257812 4.953125 -3.09375 C 5.359375 -2.820312 5.5625 -2.394531 5.5625 -1.8125 C 5.5625 -1.257812 5.347656 -0.78125 4.921875 -0.375 C 4.503906 0.0273438 3.863281 0.234375 3 0.234375 C 2.0625 0.234375 1.394531 0.0234375 1 -0.390625 C 0.613281 -0.816406 0.410156 -1.34375 0.390625 -1.96875 Z M 2.953125 -6.421875 Z M 2.953125 -6.421875 "/>
</g>
<g id="glyph-2-6">
<path d="M 0.984375 -8.03125 L 2.046875 -8.03125 L 2.046875 -6.28125 L 3.046875 -6.28125 L 3.046875 -5.421875 L 2.046875 -5.421875 L 2.046875 -1.3125 C 2.046875 -1.09375 2.125 -0.945312 2.28125 -0.875 C 2.351562 -0.832031 2.488281 -0.8125 2.6875 -0.8125 C 2.738281 -0.8125 2.789062 -0.8125 2.84375 -0.8125 C 2.90625 -0.820312 2.972656 -0.828125 3.046875 -0.828125 L 3.046875 0 C 2.929688 0.03125 2.804688 0.0507812 2.671875 0.0625 C 2.546875 0.0820312 2.40625 0.09375 2.25 0.09375 C 1.757812 0.09375 1.425781 -0.03125 1.25 -0.28125 C 1.070312 -0.53125 0.984375 -0.859375 0.984375 -1.265625 L 0.984375 -5.421875 L 0.140625 -5.421875 L 0.140625 -6.28125 L 0.984375 -6.28125 Z M 0.984375 -8.03125 "/>
</g>
<g id="glyph-2-7">
<path d="M 3.390625 -6.421875 C 3.835938 -6.421875 4.269531 -6.316406 4.6875 -6.109375 C 5.101562 -5.898438 5.421875 -5.628906 5.640625 -5.296875 C 5.847656 -4.972656 5.988281 -4.601562 6.0625 -4.1875 C 6.125 -3.894531 6.15625 -3.429688 6.15625 -2.796875 L 1.546875 -2.796875 C 1.566406 -2.160156 1.71875 -1.648438 2 -1.265625 C 2.28125 -0.878906 2.71875 -0.6875 3.3125 -0.6875 C 3.863281 -0.6875 4.300781 -0.867188 4.625 -1.234375 C 4.8125 -1.441406 4.945312 -1.6875 5.03125 -1.96875 L 6.0625 -1.96875 C 6.039062 -1.738281 5.953125 -1.484375 5.796875 -1.203125 C 5.640625 -0.921875 5.46875 -0.6875 5.28125 -0.5 C 4.957031 -0.1875 4.554688 0.0195312 4.078125 0.125 C 3.828125 0.1875 3.539062 0.21875 3.21875 0.21875 C 2.4375 0.21875 1.773438 -0.0625 1.234375 -0.625 C 0.691406 -1.195312 0.421875 -1.992188 0.421875 -3.015625 C 0.421875 -4.023438 0.691406 -4.84375 1.234375 -5.46875 C 1.785156 -6.101562 2.503906 -6.421875 3.390625 -6.421875 Z M 5.0625 -3.640625 C 5.019531 -4.097656 4.921875 -4.460938 4.765625 -4.734375 C 4.484375 -5.242188 4.003906 -5.5 3.328125 -5.5 C 2.835938 -5.5 2.425781 -5.320312 2.09375 -4.96875 C 1.769531 -4.625 1.597656 -4.179688 1.578125 -3.640625 Z M 3.28125 -6.421875 Z M 3.28125 -6.421875 "/>
</g>
<g id="glyph-3-0">
<path d="M 0.3125 0 L 0.3125 -6.875 L 5.765625 -6.875 L 5.765625 0 Z M 4.90625 -0.859375 L 4.90625 -6.015625 L 1.171875 -6.015625 L 1.171875 -0.859375 Z M 4.90625 -0.859375 "/>
</g>
<g id="glyph-3-1">
<path d="M 1.265625 -1.328125 C 1.265625 -1.085938 1.351562 -0.894531 1.53125 -0.75 C 1.707031 -0.613281 1.921875 -0.546875 2.171875 -0.546875 C 2.460938 -0.546875 2.75 -0.613281 3.03125 -0.75 C 3.5 -0.976562 3.734375 -1.351562 3.734375 -1.875 L 3.734375 -2.546875 C 3.628906 -2.484375 3.492188 -2.429688 3.328125 -2.390625 C 3.171875 -2.347656 3.015625 -2.316406 2.859375 -2.296875 L 2.34375 -2.234375 C 2.039062 -2.191406 1.8125 -2.125 1.65625 -2.03125 C 1.394531 -1.882812 1.265625 -1.648438 1.265625 -1.328125 Z M 3.3125 -3.046875 C 3.5 -3.066406 3.628906 -3.144531 3.703125 -3.28125 C 3.734375 -3.351562 3.75 -3.460938 3.75 -3.609375 C 3.75 -3.890625 3.644531 -4.09375 3.4375 -4.21875 C 3.238281 -4.351562 2.945312 -4.421875 2.5625 -4.421875 C 2.125 -4.421875 1.8125 -4.304688 1.625 -4.078125 C 1.519531 -3.941406 1.453125 -3.742188 1.421875 -3.484375 L 0.640625 -3.484375 C 0.660156 -4.097656 0.863281 -4.523438 1.25 -4.765625 C 1.632812 -5.015625 2.078125 -5.140625 2.578125 -5.140625 C 3.171875 -5.140625 3.65625 -5.023438 4.03125 -4.796875 C 4.394531 -4.578125 4.578125 -4.226562 4.578125 -3.75 L 4.578125 -0.859375 C 4.578125 -0.773438 4.59375 -0.707031 4.625 -0.65625 C 4.664062 -0.601562 4.742188 -0.578125 4.859375 -0.578125 C 4.890625 -0.578125 4.925781 -0.578125 4.96875 -0.578125 C 5.019531 -0.578125 5.070312 -0.582031 5.125 -0.59375 L 5.125 0.015625 C 5 0.0546875 4.898438 0.0820312 4.828125 0.09375 C 4.765625 0.101562 4.671875 0.109375 4.546875 0.109375 C 4.253906 0.109375 4.046875 0.00390625 3.921875 -0.203125 C 3.847656 -0.304688 3.796875 -0.460938 3.765625 -0.671875 C 3.597656 -0.441406 3.351562 -0.242188 3.03125 -0.078125 C 2.707031 0.0859375 2.351562 0.171875 1.96875 0.171875 C 1.5 0.171875 1.117188 0.0273438 0.828125 -0.25 C 0.535156 -0.53125 0.390625 -0.882812 0.390625 -1.3125 C 0.390625 -1.78125 0.53125 -2.140625 0.8125 -2.390625 C 1.101562 -2.648438 1.488281 -2.8125 1.96875 -2.875 Z M 2.609375 -5.140625 Z M 2.609375 -5.140625 "/>
</g>
<g id="glyph-3-2">
<path d="M 1.15625 -2.453125 C 1.15625 -1.910156 1.269531 -1.457031 1.5 -1.09375 C 1.726562 -0.738281 2.09375 -0.5625 2.59375 -0.5625 C 2.976562 -0.5625 3.296875 -0.726562 3.546875 -1.0625 C 3.804688 -1.394531 3.9375 -1.875 3.9375 -2.5 C 3.9375 -3.132812 3.804688 -3.601562 3.546875 -3.90625 C 3.285156 -4.21875 2.960938 -4.375 2.578125 -4.375 C 2.148438 -4.375 1.804688 -4.207031 1.546875 -3.875 C 1.285156 -3.550781 1.15625 -3.078125 1.15625 -2.453125 Z M 2.421875 -5.109375 C 2.804688 -5.109375 3.128906 -5.023438 3.390625 -4.859375 C 3.535156 -4.765625 3.703125 -4.601562 3.890625 -4.375 L 3.890625 -6.90625 L 4.703125 -6.90625 L 4.703125 0 L 3.953125 0 L 3.953125 -0.703125 C 3.753906 -0.390625 3.519531 -0.164062 3.25 -0.03125 C 2.976562 0.101562 2.671875 0.171875 2.328125 0.171875 C 1.765625 0.171875 1.28125 -0.0625 0.875 -0.53125 C 0.46875 -1 0.265625 -1.625 0.265625 -2.40625 C 0.265625 -3.132812 0.445312 -3.765625 0.8125 -4.296875 C 1.1875 -4.835938 1.722656 -5.109375 2.421875 -5.109375 Z M 2.421875 -5.109375 "/>
</g>
<g id="glyph-3-3">
<path d="M 1.46875 -5.90625 L 0.625 -5.90625 L 0.625 -6.875 L 1.46875 -6.875 Z M -0.171875 1.265625 C 0.199219 1.253906 0.425781 1.222656 0.5 1.171875 C 0.582031 1.117188 0.625 0.945312 0.625 0.65625 L 0.625 -5 L 1.46875 -5 L 1.46875 0.75 C 1.46875 1.113281 1.40625 1.382812 1.28125 1.5625 C 1.082031 1.875 0.707031 2.03125 0.15625 2.03125 C 0.125 2.03125 0.0820312 2.023438 0.03125 2.015625 C -0.0078125 2.015625 -0.078125 2.007812 -0.171875 2 Z M -0.171875 1.265625 "/>
</g>
<g id="glyph-3-4">
<path d="M 1.46875 -5.015625 L 1.46875 -1.6875 C 1.46875 -1.425781 1.503906 -1.21875 1.578125 -1.0625 C 1.734375 -0.757812 2.015625 -0.609375 2.421875 -0.609375 C 3.003906 -0.609375 3.40625 -0.867188 3.625 -1.390625 C 3.738281 -1.671875 3.796875 -2.054688 3.796875 -2.546875 L 3.796875 -5.015625 L 4.640625 -5.015625 L 4.640625 0 L 3.84375 0 L 3.84375 -0.734375 C 3.738281 -0.546875 3.601562 -0.382812 3.4375 -0.25 C 3.113281 0.0078125 2.722656 0.140625 2.265625 0.140625 C 1.554688 0.140625 1.070312 -0.0976562 0.8125 -0.578125 C 0.664062 -0.835938 0.59375 -1.179688 0.59375 -1.609375 L 0.59375 -5.015625 Z M 2.625 -5.140625 Z M 2.625 -5.140625 "/>
</g>
<g id="glyph-3-5">
<path d="M 1.125 -1.578125 C 1.144531 -1.296875 1.210938 -1.078125 1.328125 -0.921875 C 1.546875 -0.648438 1.914062 -0.515625 2.4375 -0.515625 C 2.75 -0.515625 3.019531 -0.582031 3.25 -0.71875 C 3.488281 -0.851562 3.609375 -1.066406 3.609375 -1.359375 C 3.609375 -1.566406 3.515625 -1.726562 3.328125 -1.84375 C 3.203125 -1.914062 2.960938 -1.992188 2.609375 -2.078125 L 1.9375 -2.25 C 1.507812 -2.351562 1.195312 -2.472656 1 -2.609375 C 0.632812 -2.835938 0.453125 -3.15625 0.453125 -3.5625 C 0.453125 -4.03125 0.617188 -4.410156 0.953125 -4.703125 C 1.296875 -4.992188 1.757812 -5.140625 2.34375 -5.140625 C 3.09375 -5.140625 3.640625 -4.921875 3.984375 -4.484375 C 4.191406 -4.203125 4.289062 -3.898438 4.28125 -3.578125 L 3.484375 -3.578125 C 3.472656 -3.765625 3.40625 -3.9375 3.28125 -4.09375 C 3.09375 -4.3125 2.757812 -4.421875 2.28125 -4.421875 C 1.957031 -4.421875 1.710938 -4.359375 1.546875 -4.234375 C 1.390625 -4.117188 1.3125 -3.960938 1.3125 -3.765625 C 1.3125 -3.546875 1.414062 -3.367188 1.625 -3.234375 C 1.75 -3.160156 1.9375 -3.09375 2.1875 -3.03125 L 2.734375 -2.890625 C 3.347656 -2.742188 3.753906 -2.601562 3.953125 -2.46875 C 4.285156 -2.25 4.453125 -1.910156 4.453125 -1.453125 C 4.453125 -1.003906 4.28125 -0.617188 3.9375 -0.296875 C 3.601562 0.0234375 3.085938 0.1875 2.390625 0.1875 C 1.648438 0.1875 1.125 0.0195312 0.8125 -0.3125 C 0.5 -0.65625 0.332031 -1.078125 0.3125 -1.578125 Z M 2.359375 -5.140625 Z M 2.359375 -5.140625 "/>
</g>
<g id="glyph-3-6">
<path d="M 0.78125 -6.421875 L 1.640625 -6.421875 L 1.640625 -5.015625 L 2.4375 -5.015625 L 2.4375 -4.328125 L 1.640625 -4.328125 L 1.640625 -1.046875 C 1.640625 -0.878906 1.695312 -0.765625 1.8125 -0.703125 C 1.882812 -0.671875 1.992188 -0.65625 2.140625 -0.65625 C 2.179688 -0.65625 2.222656 -0.65625 2.265625 -0.65625 C 2.316406 -0.65625 2.375 -0.660156 2.4375 -0.671875 L 2.4375 0 C 2.34375 0.03125 2.242188 0.0507812 2.140625 0.0625 C 2.035156 0.0703125 1.921875 0.078125 1.796875 0.078125 C 1.398438 0.078125 1.128906 -0.0195312 0.984375 -0.21875 C 0.847656 -0.425781 0.78125 -0.6875 0.78125 -1 L 0.78125 -4.328125 L 0.109375 -4.328125 L 0.109375 -5.015625 L 0.78125 -5.015625 Z M 0.78125 -6.421875 "/>
</g>
<g id="glyph-3-7">
<path d="M 2.703125 -5.125 C 3.054688 -5.125 3.398438 -5.039062 3.734375 -4.875 C 4.078125 -4.707031 4.332031 -4.492188 4.5 -4.234375 C 4.675781 -3.972656 4.789062 -3.675781 4.84375 -3.34375 C 4.894531 -3.113281 4.921875 -2.742188 4.921875 -2.234375 L 1.234375 -2.234375 C 1.253906 -1.722656 1.375 -1.3125 1.59375 -1 C 1.820312 -0.695312 2.171875 -0.546875 2.640625 -0.546875 C 3.085938 -0.546875 3.441406 -0.691406 3.703125 -0.984375 C 3.847656 -1.148438 3.953125 -1.347656 4.015625 -1.578125 L 4.84375 -1.578125 C 4.820312 -1.390625 4.75 -1.179688 4.625 -0.953125 C 4.507812 -0.734375 4.375 -0.550781 4.21875 -0.40625 C 3.957031 -0.15625 3.640625 0.015625 3.265625 0.109375 C 3.054688 0.148438 2.828125 0.171875 2.578125 0.171875 C 1.953125 0.171875 1.421875 -0.0507812 0.984375 -0.5 C 0.554688 -0.957031 0.34375 -1.59375 0.34375 -2.40625 C 0.34375 -3.21875 0.5625 -3.875 1 -4.375 C 1.4375 -4.875 2.003906 -5.125 2.703125 -5.125 Z M 4.046875 -2.90625 C 4.015625 -3.269531 3.9375 -3.5625 3.8125 -3.78125 C 3.582031 -4.1875 3.195312 -4.390625 2.65625 -4.390625 C 2.269531 -4.390625 1.941406 -4.25 1.671875 -3.96875 C 1.410156 -3.695312 1.273438 -3.34375 1.265625 -2.90625 Z M 2.625 -5.140625 Z M 2.625 -5.140625 "/>
</g>
<g id="glyph-3-8">
<path d="M 0.625 -5.015625 L 1.421875 -5.015625 L 1.421875 -4.3125 C 1.660156 -4.601562 1.910156 -4.8125 2.171875 -4.9375 C 2.441406 -5.0625 2.738281 -5.125 3.0625 -5.125 C 3.769531 -5.125 4.25 -4.878906 4.5 -4.390625 C 4.632812 -4.117188 4.703125 -3.726562 4.703125 -3.21875 L 4.703125 0 L 3.84375 0 L 3.84375 -3.15625 C 3.84375 -3.46875 3.800781 -3.71875 3.71875 -3.90625 C 3.5625 -4.21875 3.289062 -4.375 2.90625 -4.375 C 2.695312 -4.375 2.53125 -4.351562 2.40625 -4.3125 C 2.175781 -4.238281 1.972656 -4.097656 1.796875 -3.890625 C 1.660156 -3.734375 1.570312 -3.566406 1.53125 -3.390625 C 1.488281 -3.210938 1.46875 -2.957031 1.46875 -2.625 L 1.46875 0 L 0.625 0 Z M 2.59375 -5.140625 Z M 2.59375 -5.140625 "/>
</g>
</g>
<clipPath id="clip-0">
<path clip-rule="nonzero" d="M 48 6 L 110 6 L 110 17.976562 L 48 17.976562 Z M 48 6 "/>
</clipPath>
<clipPath id="clip-1">
<path clip-rule="nonzero" d="M 202 6 L 261 6 L 261 17.976562 L 202 17.976562 Z M 202 6 "/>
</clipPath>
</defs>
<rect x="-43.2" y="-26.6" width="518.4" height="319.2" fill="rgb(100%, 100%, 100%)" fill-opacity="1"/>
<rect x="-43.2" y="-26.6" width="518.4" height="319.2" fill="rgb(100%, 100%, 100%)" fill-opacity="1"/>
<path fill="none" stroke-width="1.280374" stroke-linecap="butt" stroke-linejoin="round" stroke="rgb(0%, 0%, 0%)" stroke-opacity="1" stroke-miterlimit="1" d="M 128.40625 161.675781 L 128.40625 202.765625 "/>
<path fill-rule="nonzero" fill="rgb(0%, 0%, 0%)" fill-opacity="1" stroke-width="1.280374" stroke-linecap="butt" stroke-linejoin="round" stroke="rgb(0%, 0%, 0%)" stroke-opacity="1" stroke-miterlimit="1" d="M 125.914062 198.453125 L 128.40625 202.765625 L 130.894531 198.453125 Z M 125.914062 198.453125 "/>
<path fill-rule="nonzero" fill="rgb(97.254902%, 46.27451%, 42.745098%)" fill-opacity="1" d="M 62.007812 69.980469 L 96.859375 69.980469 L 96.859375 35.128906 L 62.007812 35.128906 Z M 62.007812 69.980469 "/>
<path fill-rule="nonzero" fill="rgb(0%, 74.901961%, 76.862745%)" fill-opacity="1" stroke-width="0.708661" stroke-linecap="round" stroke-linejoin="round" stroke="rgb(0%, 74.901961%, 76.862745%)" stroke-opacity="1" stroke-miterlimit="10" d="M 145.832031 225.445312 C 145.832031 235.070312 138.027344 242.871094 128.40625 242.871094 C 118.78125 242.871094 110.980469 235.070312 110.980469 225.445312 C 110.980469 215.820312 118.78125 208.019531 128.40625 208.019531 C 138.027344 208.019531 145.832031 215.820312 145.832031 225.445312 "/>
<path fill-rule="nonzero" fill="rgb(0%, 74.901961%, 76.862745%)" fill-opacity="1" stroke-width="0.708661" stroke-linecap="round" stroke-linejoin="round" stroke="rgb(0%, 74.901961%, 76.862745%)" stroke-opacity="1" stroke-miterlimit="10" d="M 47.890625 139 C 47.890625 148.625 40.085938 156.425781 30.464844 156.425781 C 20.839844 156.425781 13.035156 148.625 13.035156 139 C 13.035156 129.375 20.839844 121.574219 30.464844 121.574219 C 40.085938 121.574219 47.890625 129.375 47.890625 139 "/>
<path fill-rule="nonzero" fill="rgb(0%, 74.901961%, 76.862745%)" fill-opacity="1" stroke-width="0.708661" stroke-linecap="round" stroke-linejoin="round" stroke="rgb(0%, 74.901961%, 76.862745%)" stroke-opacity="1" stroke-miterlimit="10" d="M 145.832031 139 C 145.832031 148.625 138.027344 156.425781 128.40625 156.425781 C 118.78125 156.425781 110.980469 148.625 110.980469 139 C 110.980469 129.375 118.78125 121.574219 128.40625 121.574219 C 138.027344 121.574219 145.832031 129.375 145.832031 139 "/>
<path fill-rule="nonzero" fill="rgb(97.254902%, 46.27451%, 42.745098%)" fill-opacity="1" stroke-width="0.533489" stroke-linecap="round" stroke-linejoin="round" stroke="rgb(100%, 100%, 100%)" stroke-opacity="1" stroke-miterlimit="10" d="M 41.855469 45.566406 L 134.738281 45.566406 L 134.648438 45.5625 L 134.996094 45.550781 L 135.339844 45.480469 L 135.664062 45.355469 L 135.964844 45.183594 L 136.234375 44.964844 L 136.464844 44.703125 L 136.648438 44.410156 L 136.785156 44.089844 L 136.871094 43.753906 L 136.898438 43.40625 L 136.898438 32.527344 L 136.871094 32.179688 L 136.785156 31.839844 L 136.648438 31.523438 L 136.464844 31.226562 L 136.234375 30.96875 L 135.964844 30.746094 L 135.664062 30.574219 L 135.339844 30.449219 L 134.996094 30.382812 L 134.738281 30.367188 L 41.855469 30.367188 L 42.117188 30.382812 L 41.769531 30.367188 L 41.425781 30.410156 L 41.089844 30.507812 L 40.777344 30.65625 L 40.492188 30.851562 L 40.242188 31.09375 L 40.03125 31.371094 L 39.871094 31.679688 L 39.761719 32.007812 L 39.703125 32.351562 L 39.695312 32.527344 L 39.695312 43.40625 L 39.703125 43.230469 L 39.703125 43.578125 L 39.761719 43.921875 L 39.871094 44.253906 L 40.03125 44.558594 L 40.242188 44.839844 L 40.492188 45.078125 L 40.777344 45.277344 L 41.089844 45.425781 L 41.425781 45.523438 L 41.769531 45.5625 Z M 41.855469 45.566406 "/>
<g fill="rgb(100%, 100%, 100%)" fill-opacity="1">
<use xlink:href="#glyph-0-1" x="43.296875" y="41.464844"/>
<use xlink:href="#glyph-0-2" x="50.296875" y="41.464844"/>
<use xlink:href="#glyph-0-2" x="56.296875" y="41.464844"/>
<use xlink:href="#glyph-0-3" x="62.296875" y="41.464844"/>
<use xlink:href="#glyph-0-4" x="64.296875" y="41.464844"/>
<use xlink:href="#glyph-0-5" x="70.296875" y="41.464844"/>
<use xlink:href="#glyph-0-3" x="73.296875" y="41.464844"/>
<use xlink:href="#glyph-0-6" x="75.296875" y="41.464844"/>
<use xlink:href="#glyph-0-7" x="81.296875" y="41.464844"/>
<use xlink:href="#glyph-0-8" x="87.296875" y="41.464844"/>
<use xlink:href="#glyph-0-9" x="90.296875" y="41.464844"/>
<use xlink:href="#glyph-0-7" x="97.296875" y="41.464844"/>
<use xlink:href="#glyph-0-10" x="103.296875" y="41.464844"/>
<use xlink:href="#glyph-0-11" x="109.296875" y="41.464844"/>
<use xlink:href="#glyph-0-6" x="115.296875" y="41.464844"/>
<use xlink:href="#glyph-0-3" x="121.296875" y="41.464844"/>
<use xlink:href="#glyph-0-12" x="123.296875" y="41.464844"/>
<use xlink:href="#glyph-0-13" x="129.296875" y="41.464844"/>
</g>
<path fill-rule="nonzero" fill="rgb(0%, 74.901961%, 76.862745%)" fill-opacity="1" stroke-width="0.533489" stroke-linecap="round" stroke-linejoin="round" stroke="rgb(100%, 100%, 100%)" stroke-opacity="1" stroke-miterlimit="10" d="M 72.417969 233.042969 L 136.300781 233.042969 L 136.210938 233.042969 L 136.558594 233.027344 L 136.902344 232.957031 L 137.226562 232.835938 L 137.527344 232.660156 L 137.796875 232.441406 L 138.027344 232.183594 L 138.210938 231.886719 L 138.347656 231.566406 L 138.433594 231.230469 L 138.460938 230.882812 L 138.460938 220.003906 L 138.433594 219.65625 L 138.347656 219.320312 L 138.210938 219 L 138.027344 218.707031 L 137.796875 218.445312 L 137.527344 218.226562 L 137.226562 218.054688 L 136.902344 217.929688 L 136.558594 217.859375 L 136.300781 217.84375 L 72.417969 217.84375 L 72.679688 217.859375 L 72.332031 217.847656 L 71.988281 217.886719 L 71.652344 217.984375 L 71.339844 218.132812 L 71.054688 218.332031 L 70.804688 218.570312 L 70.59375 218.851562 L 70.433594 219.15625 L 70.324219 219.488281 L 70.265625 219.832031 L 70.257812 220.003906 L 70.257812 230.882812 L 70.265625 230.710938 L 70.265625 231.058594 L 70.324219 231.402344 L 70.433594 231.730469 L 70.59375 232.039062 L 70.804688 232.316406 L 71.054688 232.558594 L 71.339844 232.753906 L 71.652344 232.902344 L 71.988281 233 L 72.332031 233.042969 Z M 72.417969 233.042969 "/>
<g fill="rgb(100%, 100%, 100%)" fill-opacity="1">
<use xlink:href="#glyph-0-14" x="73.859375" y="228.945312"/>
<use xlink:href="#glyph-0-15" x="79.859375" y="228.945312"/>
<use xlink:href="#glyph-0-16" x="85.859375" y="228.945312"/>
<use xlink:href="#glyph-0-17" x="91.859375" y="228.945312"/>
<use xlink:href="#glyph-0-8" x="97.859375" y="228.945312"/>
<use xlink:href="#glyph-0-4" x="100.859375" y="228.945312"/>
<use xlink:href="#glyph-0-11" x="106.859375" y="228.945312"/>
<use xlink:href="#glyph-0-16" x="112.859375" y="228.945312"/>
<use xlink:href="#glyph-0-4" x="118.859375" y="228.945312"/>
<use xlink:href="#glyph-0-7" x="124.859375" y="228.945312"/>
<use xlink:href="#glyph-0-13" x="130.859375" y="228.945312"/>
</g>
<path fill-rule="nonzero" fill="rgb(0%, 74.901961%, 76.862745%)" fill-opacity="1" stroke-width="0.533489" stroke-linecap="round" stroke-linejoin="round" stroke="rgb(100%, 100%, 100%)" stroke-opacity="1" stroke-miterlimit="10" d="M 33.328125 149.226562 L 68.207031 149.226562 L 68.121094 149.226562 L 68.46875 149.210938 L 68.808594 149.140625 L 69.136719 149.019531 L 69.4375 148.84375 L 69.707031 148.625 L 69.9375 148.363281 L 70.121094 148.070312 L 70.257812 147.75 L 70.339844 147.414062 L 70.367188 147.066406 L 70.367188 136.1875 L 70.339844 135.839844 L 70.257812 135.503906 L 70.121094 135.183594 L 69.9375 134.890625 L 69.707031 134.628906 L 69.4375 134.410156 L 69.136719 134.234375 L 68.808594 134.113281 L 68.46875 134.042969 L 68.207031 134.027344 L 33.328125 134.027344 L 33.589844 134.042969 L 33.242188 134.027344 L 32.898438 134.070312 L 32.5625 134.167969 L 32.25 134.316406 L 31.960938 134.515625 L 31.710938 134.753906 L 31.503906 135.03125 L 31.339844 135.339844 L 31.230469 135.671875 L 31.175781 136.011719 L 31.167969 136.1875 L 31.167969 147.066406 L 31.175781 146.894531 L 31.175781 147.242188 L 31.230469 147.585938 L 31.339844 147.914062 L 31.503906 148.222656 L 31.710938 148.5 L 31.960938 148.738281 L 32.25 148.9375 L 32.5625 149.085938 L 32.898438 149.183594 L 33.242188 149.226562 Z M 33.328125 149.226562 "/>
<g fill="rgb(100%, 100%, 100%)" fill-opacity="1">
<use xlink:href="#glyph-0-18" x="34.769531" y="145.128906"/>
<use xlink:href="#glyph-0-12" x="42.769531" y="145.128906"/>
<use xlink:href="#glyph-0-19" x="48.769531" y="145.128906"/>
<use xlink:href="#glyph-0-19" x="51.769531" y="145.128906"/>
<use xlink:href="#glyph-0-7" x="54.769531" y="145.128906"/>
<use xlink:href="#glyph-0-7" x="60.769531" y="145.128906"/>
</g>
<path fill-rule="nonzero" fill="rgb(0%, 74.901961%, 76.862745%)" fill-opacity="1" stroke-width="0.533489" stroke-linecap="round" stroke-linejoin="round" stroke="rgb(100%, 100%, 100%)" stroke-opacity="1" stroke-miterlimit="10" d="M 84.863281 146.609375 L 129.746094 146.609375 L 129.65625 146.605469 L 130.003906 146.59375 L 130.347656 146.523438 L 130.671875 146.398438 L 130.972656 146.226562 L 131.242188 146.003906 L 131.472656 145.746094 L 131.65625 145.453125 L 131.792969 145.132812 L 131.875 144.792969 L 131.90625 144.449219 L 131.90625 133.566406 L 131.875 133.222656 L 131.792969 132.882812 L 131.65625 132.5625 L 131.472656 132.269531 L 131.242188 132.011719 L 130.972656 131.789062 L 130.671875 131.617188 L 130.347656 131.492188 L 130.003906 131.421875 L 129.746094 131.40625 L 84.863281 131.40625 L 85.125 131.421875 L 84.777344 131.410156 L 84.433594 131.453125 L 84.097656 131.546875 L 83.785156 131.695312 L 83.5 131.894531 L 83.25 132.136719 L 83.039062 132.414062 L 82.878906 132.722656 L 82.769531 133.050781 L 82.710938 133.394531 L 82.703125 133.566406 L 82.703125 144.449219 L 82.710938 144.273438 L 82.710938 144.621094 L 82.769531 144.964844 L 82.878906 145.292969 L 83.039062 145.601562 L 83.25 145.878906 L 83.5 146.121094 L 83.785156 146.320312 L 84.097656 146.46875 L 84.433594 146.5625 L 84.777344 146.605469 Z M 84.863281 146.609375 "/>
<g fill="rgb(100%, 100%, 100%)" fill-opacity="1">
<use xlink:href="#glyph-0-20" x="86.304688" y="142.507812"/>
<use xlink:href="#glyph-0-21" x="93.304688" y="142.507812"/>
<use xlink:href="#glyph-0-12" x="102.304688" y="142.507812"/>
<use xlink:href="#glyph-0-22" x="108.304688" y="142.507812"/>
<use xlink:href="#glyph-0-3" x="114.304688" y="142.507812"/>
<use xlink:href="#glyph-0-16" x="116.304688" y="142.507812"/>
<use xlink:href="#glyph-0-17" x="122.304688" y="142.507812"/>
</g>
<path fill="none" stroke-width="1.280374" stroke-linecap="butt" stroke-linejoin="round" stroke="rgb(0%, 0%, 0%)" stroke-opacity="1" stroke-miterlimit="1" d="M 221.144531 72.285156 L 220.945312 72.636719 L 220.453125 73.511719 L 219.957031 74.386719 L 219.460938 75.257812 L 218.96875 76.132812 L 218.472656 77.003906 L 217.980469 77.878906 L 217.484375 78.75 L 216.988281 79.625 L 216.496094 80.496094 L 216 81.371094 L 215.503906 82.242188 L 215.011719 83.117188 L 214.515625 83.988281 L 214.023438 84.863281 L 213.527344 85.734375 L 213.03125 86.609375 L 212.539062 87.484375 L 212.042969 88.355469 L 211.546875 89.230469 L 211.054688 90.101562 L 210.558594 90.976562 L 210.0625 91.847656 L 209.570312 92.722656 L 209.074219 93.59375 L 208.582031 94.46875 L 208.085938 95.339844 L 207.589844 96.214844 L 207.097656 97.085938 L 206.601562 97.960938 L 206.105469 98.832031 L 205.613281 99.707031 L 205.117188 100.582031 L 204.625 101.453125 L 204.128906 102.328125 L 203.632812 103.199219 L 203.140625 104.074219 L 202.644531 104.945312 L 202.148438 105.820312 L 201.65625 106.691406 L 201.160156 107.566406 L 200.664062 108.4375 L 200.171875 109.3125 L 199.675781 110.183594 L 199.183594 111.058594 L 198.6875 111.929688 L 198.191406 112.804688 L 197.699219 113.679688 L 197.203125 114.550781 L 196.707031 115.425781 L 196.214844 116.296875 L 195.71875 117.171875 L 195.226562 118.042969 L 194.730469 118.917969 L 194.53125 119.269531 "/>
<path fill-rule="nonzero" fill="rgb(0%, 0%, 0%)" fill-opacity="1" stroke-width="1.280374" stroke-linecap="butt" stroke-linejoin="round" stroke="rgb(0%, 0%, 0%)" stroke-opacity="1" stroke-miterlimit="1" d="M 194.488281 114.289062 L 194.53125 119.269531 L 198.824219 116.742188 Z M 194.488281 114.289062 "/>
<path fill="none" stroke-width="1.280374" stroke-linecap="butt" stroke-linejoin="round" stroke="rgb(0%, 0%, 0%)" stroke-opacity="1" stroke-miterlimit="1" d="M 243.5 72.285156 L 243.699219 72.636719 L 244.691406 74.386719 L 245.183594 75.257812 L 245.679688 76.132812 L 246.175781 77.003906 L 246.667969 77.878906 L 247.164062 78.75 L 247.660156 79.625 L 248.152344 80.496094 L 248.648438 81.371094 L 249.140625 82.242188 L 249.636719 83.117188 L 250.132812 83.988281 L 250.625 84.863281 L 251.121094 85.734375 L 251.617188 86.609375 L 252.109375 87.484375 L 252.605469 88.355469 L 253.097656 89.230469 L 253.59375 90.101562 L 254.089844 90.976562 L 254.582031 91.847656 L 255.078125 92.722656 L 255.574219 93.59375 L 256.066406 94.46875 L 256.5625 95.339844 L 257.058594 96.214844 L 257.550781 97.085938 L 258.046875 97.960938 L 258.539062 98.832031 L 259.53125 100.582031 L 260.023438 101.453125 L 260.519531 102.328125 L 261.015625 103.199219 L 261.507812 104.074219 L 262.003906 104.945312 L 262.496094 105.820312 L 262.992188 106.691406 L 263.488281 107.566406 L 263.980469 108.4375 L 264.476562 109.3125 L 264.972656 110.183594 L 265.464844 111.058594 L 265.960938 111.929688 L 266.457031 112.804688 L 266.949219 113.679688 L 267.445312 114.550781 L 267.9375 115.425781 L 268.433594 116.296875 L 268.929688 117.171875 L 269.421875 118.042969 L 269.917969 118.917969 L 270.117188 119.269531 "/>
<path fill-rule="nonzero" fill="rgb(0%, 0%, 0%)" fill-opacity="1" stroke-width="1.280374" stroke-linecap="butt" stroke-linejoin="round" stroke="rgb(0%, 0%, 0%)" stroke-opacity="1" stroke-miterlimit="1" d="M 265.824219 116.742188 L 270.117188 119.269531 L 270.15625 114.289062 Z M 265.824219 116.742188 "/>
<path fill-rule="nonzero" fill="rgb(0%, 74.901961%, 76.862745%)" fill-opacity="1" stroke-width="0.708661" stroke-linecap="round" stroke-linejoin="round" stroke="rgb(0%, 74.901961%, 76.862745%)" stroke-opacity="1" stroke-miterlimit="10" d="M 249.75 52.554688 C 249.75 62.179688 241.949219 69.980469 232.324219 69.980469 C 222.699219 69.980469 214.898438 62.179688 214.898438 52.554688 C 214.898438 42.929688 222.699219 35.128906 232.324219 35.128906 C 241.949219 35.128906 249.75 42.929688 249.75 52.554688 "/>
<path fill-rule="nonzero" fill="rgb(0%, 74.901961%, 76.862745%)" fill-opacity="1" stroke-width="0.708661" stroke-linecap="round" stroke-linejoin="round" stroke="rgb(0%, 74.901961%, 76.862745%)" stroke-opacity="1" stroke-miterlimit="10" d="M 298.722656 225.445312 C 298.722656 235.070312 290.917969 242.871094 281.292969 242.871094 C 271.671875 242.871094 263.867188 235.070312 263.867188 225.445312 C 263.867188 215.820312 271.671875 208.019531 281.292969 208.019531 C 290.917969 208.019531 298.722656 215.820312 298.722656 225.445312 "/>
<path fill-rule="nonzero" fill="rgb(0%, 74.901961%, 76.862745%)" fill-opacity="1" stroke-width="0.708661" stroke-linecap="round" stroke-linejoin="round" stroke="rgb(0%, 74.901961%, 76.862745%)" stroke-opacity="1" stroke-miterlimit="10" d="M 200.777344 139 C 200.777344 148.625 192.976562 156.425781 183.351562 156.425781 C 173.730469 156.425781 165.925781 148.625 165.925781 139 C 165.925781 129.375 173.730469 121.574219 183.351562 121.574219 C 192.976562 121.574219 200.777344 129.375 200.777344 139 "/>
<path fill-rule="nonzero" fill="rgb(97.254902%, 46.27451%, 42.745098%)" fill-opacity="1" d="M 263.867188 156.425781 L 298.722656 156.425781 L 298.722656 121.574219 L 263.867188 121.574219 Z M 263.867188 156.425781 "/>
<path fill-rule="nonzero" fill="rgb(0%, 74.901961%, 76.862745%)" fill-opacity="1" stroke-width="0.533489" stroke-linecap="round" stroke-linejoin="round" stroke="rgb(100%, 100%, 100%)" stroke-opacity="1" stroke-miterlimit="10" d="M 194.660156 45.695312 L 287.539062 45.695312 L 287.453125 45.691406 L 287.800781 45.675781 L 288.140625 45.609375 L 288.464844 45.484375 L 288.765625 45.3125 L 289.035156 45.089844 L 289.265625 44.832031 L 289.453125 44.539062 L 289.589844 44.21875 L 289.671875 43.878906 L 289.699219 43.535156 L 289.699219 32.652344 L 289.671875 32.308594 L 289.589844 31.96875 L 289.453125 31.648438 L 289.265625 31.355469 L 289.035156 31.09375 L 288.765625 30.875 L 288.464844 30.703125 L 288.140625 30.578125 L 287.800781 30.507812 L 287.539062 30.492188 L 194.660156 30.492188 L 194.921875 30.507812 L 194.574219 30.496094 L 194.226562 30.539062 L 193.894531 30.632812 L 193.582031 30.78125 L 193.292969 30.980469 L 193.042969 31.222656 L 192.835938 31.5 L 192.671875 31.808594 L 192.5625 32.136719 L 192.507812 32.480469 L 192.5 32.652344 L 192.5 43.535156 L 192.507812 43.359375 L 192.507812 43.707031 L 192.5625 44.050781 L 192.671875 44.378906 L 192.835938 44.6875 L 193.042969 44.964844 L 193.292969 45.207031 L 193.582031 45.402344 L 193.894531 45.554688 L 194.226562 45.648438 L 194.574219 45.691406 Z M 194.660156 45.695312 "/>
<g fill="rgb(100%, 100%, 100%)" fill-opacity="1">
<use xlink:href="#glyph-0-1" x="196.101562" y="41.59375"/>
<use xlink:href="#glyph-0-2" x="203.101562" y="41.59375"/>
<use xlink:href="#glyph-0-2" x="209.101562" y="41.59375"/>
<use xlink:href="#glyph-0-3" x="215.101562" y="41.59375"/>
<use xlink:href="#glyph-0-4" x="217.101562" y="41.59375"/>
<use xlink:href="#glyph-0-5" x="223.101562" y="41.59375"/>
<use xlink:href="#glyph-0-3" x="226.101562" y="41.59375"/>
<use xlink:href="#glyph-0-6" x="228.101562" y="41.59375"/>
<use xlink:href="#glyph-0-7" x="234.101562" y="41.59375"/>
<use xlink:href="#glyph-0-8" x="240.101562" y="41.59375"/>
<use xlink:href="#glyph-0-9" x="243.101562" y="41.59375"/>
<use xlink:href="#glyph-0-7" x="250.101562" y="41.59375"/>
<use xlink:href="#glyph-0-10" x="256.101562" y="41.59375"/>
<use xlink:href="#glyph-0-11" x="262.101562" y="41.59375"/>
<use xlink:href="#glyph-0-6" x="268.101562" y="41.59375"/>
<use xlink:href="#glyph-0-3" x="274.101562" y="41.59375"/>
<use xlink:href="#glyph-0-12" x="276.101562" y="41.59375"/>
<use xlink:href="#glyph-0-13" x="282.101562" y="41.59375"/>
</g>
<path fill-rule="nonzero" fill="rgb(0%, 74.901961%, 76.862745%)" fill-opacity="1" stroke-width="0.533489" stroke-linecap="round" stroke-linejoin="round" stroke="rgb(100%, 100%, 100%)" stroke-opacity="1" stroke-miterlimit="10" d="M 225.308594 233.046875 L 289.191406 233.046875 L 289.101562 233.042969 L 289.449219 233.03125 L 289.789062 232.960938 L 290.117188 232.835938 L 290.417969 232.664062 L 290.6875 232.445312 L 290.917969 232.183594 L 291.101562 231.890625 L 291.238281 231.570312 L 291.320312 231.230469 L 291.351562 230.886719 L 291.351562 220.003906 L 291.320312 219.660156 L 291.238281 219.320312 L 291.101562 219 L 290.917969 218.707031 L 290.6875 218.449219 L 290.417969 218.226562 L 290.117188 218.054688 L 289.789062 217.929688 L 289.449219 217.863281 L 289.191406 217.847656 L 225.308594 217.847656 L 225.570312 217.863281 L 225.222656 217.847656 L 224.878906 217.890625 L 224.542969 217.984375 L 224.230469 218.136719 L 223.945312 218.332031 L 223.691406 218.574219 L 223.484375 218.851562 L 223.324219 219.160156 L 223.210938 219.488281 L 223.15625 219.832031 L 223.148438 220.003906 L 223.148438 230.886719 L 223.15625 230.710938 L 223.15625 231.058594 L 223.210938 231.402344 L 223.324219 231.730469 L 223.484375 232.039062 L 223.691406 232.316406 L 223.945312 232.558594 L 224.230469 232.757812 L 224.542969 232.90625 L 224.878906 233.003906 L 225.222656 233.042969 Z M 225.308594 233.046875 "/>
<g fill="rgb(100%, 100%, 100%)" fill-opacity="1">
<use xlink:href="#glyph-0-14" x="226.75" y="228.945312"/>
<use xlink:href="#glyph-0-15" x="232.75" y="228.945312"/>
<use xlink:href="#glyph-0-16" x="238.75" y="228.945312"/>
<use xlink:href="#glyph-0-17" x="244.75" y="228.945312"/>
<use xlink:href="#glyph-0-8" x="250.75" y="228.945312"/>
<use xlink:href="#glyph-0-4" x="253.75" y="228.945312"/>
<use xlink:href="#glyph-0-11" x="259.75" y="228.945312"/>
<use xlink:href="#glyph-0-16" x="265.75" y="228.945312"/>
<use xlink:href="#glyph-0-4" x="271.75" y="228.945312"/>
<use xlink:href="#glyph-0-7" x="277.75" y="228.945312"/>
<use xlink:href="#glyph-0-13" x="283.75" y="228.945312"/>
</g>
<path fill-rule="nonzero" fill="rgb(0%, 74.901961%, 76.862745%)" fill-opacity="1" stroke-width="0.533489" stroke-linecap="round" stroke-linejoin="round" stroke="rgb(100%, 100%, 100%)" stroke-opacity="1" stroke-miterlimit="10" d="M 186.257812 146.808594 L 221.136719 146.808594 L 221.050781 146.804688 L 221.398438 146.792969 L 221.738281 146.722656 L 222.0625 146.601562 L 222.363281 146.425781 L 222.632812 146.207031 L 222.863281 145.945312 L 223.046875 145.652344 L 223.183594 145.332031 L 223.269531 144.996094 L 223.296875 144.648438 L 223.296875 133.769531 L 223.269531 133.421875 L 223.183594 133.085938 L 223.046875 132.765625 L 222.863281 132.472656 L 222.632812 132.210938 L 222.363281 131.992188 L 222.0625 131.816406 L 221.738281 131.695312 L 221.398438 131.625 L 221.136719 131.609375 L 186.257812 131.609375 L 186.515625 131.625 L 186.167969 131.609375 L 185.824219 131.652344 L 185.492188 131.75 L 185.175781 131.898438 L 184.890625 132.09375 L 184.640625 132.335938 L 184.429688 132.613281 L 184.269531 132.921875 L 184.160156 133.25 L 184.101562 133.59375 L 184.097656 133.769531 L 184.097656 144.648438 L 184.101562 144.472656 L 184.101562 144.820312 L 184.160156 145.164062 L 184.269531 145.496094 L 184.429688 145.804688 L 184.640625 146.082031 L 184.890625 146.320312 L 185.175781 146.519531 L 185.492188 146.667969 L 185.824219 146.765625 L 186.167969 146.804688 Z M 186.257812 146.808594 "/>
<g fill="rgb(100%, 100%, 100%)" fill-opacity="1">
<use xlink:href="#glyph-0-18" x="187.695312" y="142.707031"/>
<use xlink:href="#glyph-0-12" x="195.695312" y="142.707031"/>
<use xlink:href="#glyph-0-19" x="201.695312" y="142.707031"/>
<use xlink:href="#glyph-0-19" x="204.695312" y="142.707031"/>
<use xlink:href="#glyph-0-7" x="207.695312" y="142.707031"/>
<use xlink:href="#glyph-0-7" x="213.695312" y="142.707031"/>
</g>
<path fill-rule="nonzero" fill="rgb(97.254902%, 46.27451%, 42.745098%)" fill-opacity="1" stroke-width="0.533489" stroke-linecap="round" stroke-linejoin="round" stroke="rgb(100%, 100%, 100%)" stroke-opacity="1" stroke-miterlimit="10" d="M 237.753906 146.601562 L 282.636719 146.601562 L 282.546875 146.597656 L 282.894531 146.585938 L 283.234375 146.515625 L 283.5625 146.390625 L 283.863281 146.21875 L 284.132812 146 L 284.363281 145.738281 L 284.546875 145.445312 L 284.683594 145.125 L 284.765625 144.789062 L 284.796875 144.441406 L 284.796875 133.5625 L 284.765625 133.214844 L 284.683594 132.875 L 284.546875 132.558594 L 284.363281 132.261719 L 284.132812 132.003906 L 283.863281 131.78125 L 283.5625 131.609375 L 283.234375 131.484375 L 282.894531 131.417969 L 282.636719 131.402344 L 237.753906 131.402344 L 238.015625 131.417969 L 237.667969 131.402344 L 237.324219 131.445312 L 236.988281 131.542969 L 236.675781 131.691406 L 236.390625 131.886719 L 236.136719 132.128906 L 235.929688 132.40625 L 235.769531 132.714844 L 235.65625 133.042969 L 235.601562 133.386719 L 235.59375 133.5625 L 235.59375 144.441406 L 235.601562 144.265625 L 235.601562 144.613281 L 235.65625 144.957031 L 235.769531 145.289062 L 235.929688 145.59375 L 236.136719 145.871094 L 236.390625 146.113281 L 236.675781 146.3125 L 236.988281 146.460938 L 237.324219 146.558594 L 237.667969 146.597656 Z M 237.753906 146.601562 "/>
<g fill="rgb(100%, 100%, 100%)" fill-opacity="1">
<use xlink:href="#glyph-0-20" x="239.195312" y="142.5"/>
<use xlink:href="#glyph-0-21" x="246.195312" y="142.5"/>
<use xlink:href="#glyph-0-12" x="255.195312" y="142.5"/>
<use xlink:href="#glyph-0-22" x="261.195312" y="142.5"/>
<use xlink:href="#glyph-0-3" x="267.195312" y="142.5"/>
<use xlink:href="#glyph-0-16" x="269.195312" y="142.5"/>
<use xlink:href="#glyph-0-17" x="275.195312" y="142.5"/>
</g>
<g clip-path="url(#clip-0)">
<g fill="rgb(0%, 0%, 0%)" fill-opacity="1">
<use xlink:href="#glyph-1-1" x="48.433594" y="15.716797"/>
<use xlink:href="#glyph-1-2" x="53.433594" y="15.716797"/>
<use xlink:href="#glyph-1-3" x="60.433594" y="15.716797"/>
<use xlink:href="#glyph-1-3" x="67.433594" y="15.716797"/>
<use xlink:href="#glyph-1-4" x="74.433594" y="15.716797"/>
<use xlink:href="#glyph-1-5" x="77.433594" y="15.716797"/>
<use xlink:href="#glyph-1-6" x="84.433594" y="15.716797"/>
<use xlink:href="#glyph-1-4" x="88.433594" y="15.716797"/>
<use xlink:href="#glyph-1-7" x="91.433594" y="15.716797"/>
<use xlink:href="#glyph-1-8" x="98.433594" y="15.716797"/>
<use xlink:href="#glyph-1-9" x="105.433594" y="15.716797"/>
</g>
</g>
<g clip-path="url(#clip-1)">
<g fill="rgb(0%, 0%, 0%)" fill-opacity="1">
<use xlink:href="#glyph-1-1" x="202.824219" y="15.716797"/>
<use xlink:href="#glyph-1-10" x="207.824219" y="15.716797"/>
<use xlink:href="#glyph-1-11" x="214.824219" y="15.716797"/>
<use xlink:href="#glyph-1-12" x="225.824219" y="15.716797"/>
<use xlink:href="#glyph-1-13" x="232.824219" y="15.716797"/>
<use xlink:href="#glyph-1-4" x="239.824219" y="15.716797"/>
<use xlink:href="#glyph-1-14" x="242.824219" y="15.716797"/>
<use xlink:href="#glyph-1-15" x="249.824219" y="15.716797"/>
<use xlink:href="#glyph-1-9" x="256.824219" y="15.716797"/>
</g>
</g>
<g fill="rgb(0%, 0%, 0%)" fill-opacity="1">
<use xlink:href="#glyph-2-1" x="323.714844" y="94.396484"/>
<use xlink:href="#glyph-2-2" x="330.714844" y="94.396484"/>
<use xlink:href="#glyph-2-3" x="337.714844" y="94.396484"/>
<use xlink:href="#glyph-2-4" x="340.714844" y="94.396484"/>
<use xlink:href="#glyph-2-5" x="347.714844" y="94.396484"/>
<use xlink:href="#glyph-2-6" x="353.714844" y="94.396484"/>
<use xlink:href="#glyph-2-7" x="356.714844" y="94.396484"/>
<use xlink:href="#glyph-2-2" x="363.714844" y="94.396484"/>
</g>
<path fill-rule="nonzero" fill="rgb(97.254902%, 46.27451%, 42.745098%)" fill-opacity="1" d="M 328.964844 142.738281 L 363.816406 142.738281 L 363.816406 107.886719 L 328.964844 107.886719 Z M 328.964844 142.738281 "/>
<path fill-rule="nonzero" fill="rgb(0%, 74.901961%, 76.862745%)" fill-opacity="1" stroke-width="0.708661" stroke-linecap="round" stroke-linejoin="round" stroke="rgb(0%, 74.901961%, 76.862745%)" stroke-opacity="1" stroke-miterlimit="10" d="M 363.816406 170.664062 C 363.816406 180.289062 356.015625 188.09375 346.390625 188.09375 C 336.765625 188.09375 328.964844 180.289062 328.964844 170.664062 C 328.964844 161.042969 336.765625 153.238281 346.390625 153.238281 C 356.015625 153.238281 363.816406 161.042969 363.816406 170.664062 "/>
<g fill="rgb(0%, 0%, 0%)" fill-opacity="1">
<use xlink:href="#glyph-3-1" x="375.042969" y="128.204102"/>
<use xlink:href="#glyph-3-2" x="380.042969" y="128.204102"/>
<use xlink:href="#glyph-3-3" x="385.042969" y="128.204102"/>
<use xlink:href="#glyph-3-4" x="387.042969" y="128.204102"/>
<use xlink:href="#glyph-3-5" x="392.042969" y="128.204102"/>
<use xlink:href="#glyph-3-6" x="397.042969" y="128.204102"/>
<use xlink:href="#glyph-3-7" x="400.042969" y="128.204102"/>
<use xlink:href="#glyph-3-2" x="405.042969" y="128.204102"/>
</g>
<g fill="rgb(0%, 0%, 0%)" fill-opacity="1">
<use xlink:href="#glyph-3-4" x="375.042969" y="173.555664"/>
<use xlink:href="#glyph-3-8" x="380.042969" y="173.555664"/>
<use xlink:href="#glyph-3-1" x="385.042969" y="173.555664"/>
<use xlink:href="#glyph-3-2" x="390.042969" y="173.555664"/>
<use xlink:href="#glyph-3-3" x="395.042969" y="173.555664"/>
<use xlink:href="#glyph-3-4" x="397.042969" y="173.555664"/>
<use xlink:href="#glyph-3-5" x="402.042969" y="173.555664"/>
<use xlink:href="#glyph-3-6" x="407.042969" y="173.555664"/>
<use xlink:href="#glyph-3-7" x="410.042969" y="173.555664"/>
<use xlink:href="#glyph-3-2" x="415.042969" y="173.555664"/>
</g>
</svg>
